<?xml version="1.0" encoding="UTF-8"?>
<svg version="1.1" xmlns="http://www.w3.org/2000/svg" width="328" height="328">
<path d="M0 0 C108.24 0 216.48 0 328 0 C328 108.24 328 216.48 328 328 C219.76 328 111.52 328 0 328 C0 219.76 0 111.52 0 0 Z " fill="#010101" transform="translate(0,0)"/>
<path d="M0 0 C1.9795355 -0.00391547 3.95907137 -0.00784495 5.93860322 -0.01329941 C12.15357016 -0.03021582 18.36829114 -0.02682011 24.58325195 -0.01000977 C30.94259646 0.00687165 37.30125243 -0.00888617 43.66052169 -0.04123265 C49.1659536 -0.06814977 54.67117416 -0.07514477 60.17666513 -0.06671757 C63.44463159 -0.06184805 66.71210223 -0.06585126 69.98003197 -0.08450508 C87.81237907 -0.17067948 104.4463087 0.76436801 120.45703125 9.44140625 C121.43965942 9.95501709 121.43965942 9.95501709 122.44213867 10.47900391 C127.73244893 13.31809114 132.39447945 16.58464195 136.89453125 20.56640625 C138.21517578 21.65695313 138.21517578 21.65695313 139.5625 22.76953125 C147.90466757 29.90352283 154.97778645 38.18365603 158.89453125 48.56640625 C159.69493735 50.11438636 160.50782377 51.65596677 161.33203125 53.19140625 C171.09129049 72.47961772 171.30555799 101.88461412 164.8046875 122.39379883 C161.6043236 131.28802282 157.20120665 141.42539359 150.89453125 148.56640625 C148.0546875 149.58203125 148.0546875 149.58203125 145.89453125 149.56640625 C145.89453125 148.90640625 145.89453125 148.24640625 145.89453125 147.56640625 C145.18425781 147.38464844 144.47398437 147.20289063 143.7421875 147.015625 C142.82308594 146.76425781 141.90398437 146.51289063 140.95703125 146.25390625 C140.04050781 146.01027344 139.12398437 145.76664063 138.1796875 145.515625 C137.42558594 145.20238281 136.67148438 144.88914063 135.89453125 144.56640625 C135.56453125 143.57640625 135.23453125 142.58640625 134.89453125 141.56640625 C132.92057602 140.82617304 130.91181263 140.17879524 128.89453125 139.56640625 C125.86852111 138.28996223 122.88061033 136.9333669 119.89453125 135.56640625 C119.89453125 134.90640625 119.89453125 134.24640625 119.89453125 133.56640625 C118.57453125 133.56640625 117.25453125 133.56640625 115.89453125 133.56640625 C115.89453125 132.90640625 115.89453125 132.24640625 115.89453125 131.56640625 C114.00734375 131.00953125 114.00734375 131.00953125 112.08203125 130.44140625 C107.25134803 128.84128983 103.02096526 126.54789833 98.6015625 124.05078125 C95.44276295 122.31868337 92.21719455 120.86686314 88.91015625 119.4453125 C86.18469089 118.25688284 83.53957852 116.92284075 80.89453125 115.56640625 C81.08203125 112.75390625 81.08203125 112.75390625 81.89453125 109.56640625 C83.53243837 108.51996559 85.20461146 107.52658795 86.89453125 106.56640625 C91.46722918 101.99370832 92.25212787 98.91736944 92.39453125 92.44140625 C92.35157697 87.53387949 91.81908078 84.54802187 88.89453125 80.56640625 C69.32714587 63.00593219 43.36129575 73.99557445 15.89453125 73.56640625 C15.89453125 122.73640625 15.89453125 171.90640625 15.89453125 222.56640625 C17.21453125 222.89640625 18.53453125 223.22640625 19.89453125 223.56640625 C21.50083105 224.28992615 23.08847079 225.05564486 24.66015625 225.8515625 C25.54960937 226.29951172 26.4390625 226.74746094 27.35546875 227.20898438 C28.27585937 227.67755859 29.19625 228.14613281 30.14453125 228.62890625 C31.08039063 229.10134766 32.01625 229.57378906 32.98046875 230.06054688 C35.28700101 231.22558103 37.59158072 232.39431228 39.89453125 233.56640625 C39.89453125 234.22640625 39.89453125 234.88640625 39.89453125 235.56640625 C40.81685547 235.85644531 40.81685547 235.85644531 41.7578125 236.15234375 C42.56605469 236.41273438 43.37429687 236.673125 44.20703125 236.94140625 C45.00753906 237.19664062 45.80804688 237.451875 46.6328125 237.71484375 C48.89453125 238.56640625 48.89453125 238.56640625 51.89453125 240.56640625 C51.89453125 241.22640625 51.89453125 241.88640625 51.89453125 242.56640625 C60.10064001 241.32175586 66.10791013 237.91413918 73.14453125 233.62890625 C74.20671875 232.99533203 75.26890625 232.36175781 76.36328125 231.70898438 C81.97413912 228.36628305 81.97413912 228.36628305 87.48339844 224.86108398 C89.89453125 223.56640625 89.89453125 223.56640625 93.89453125 223.56640625 C93.89453125 222.90640625 93.89453125 222.24640625 93.89453125 221.56640625 C97.2613704 219.1348002 98.62803489 218.56640625 102.89453125 218.56640625 C102.9085498 219.7898877 102.9085498 219.7898877 102.92285156 221.03808594 C102.96741216 224.12499938 103.02926264 227.21099606 103.10205078 230.29736328 C103.14346484 232.26572094 103.16573578 234.23445201 103.1875 236.203125 C103.38034704 243.80129829 104.32462381 250.16745284 107.04589844 257.28222656 C107.89453125 259.56640625 107.89453125 259.56640625 107.89453125 261.56640625 C108.55453125 261.56640625 109.21453125 261.56640625 109.89453125 261.56640625 C114.89453125 267.04259673 114.89453125 267.04259673 114.89453125 269.56640625 C115.47847656 269.85644531 116.06242188 270.14648438 116.6640625 270.4453125 C118.02209729 271.12789741 119.37517631 271.82062323 120.71875 272.53125 C125.63216673 275.09611534 130.5979215 276.94799772 135.89453125 278.56640625 C135.89453125 279.22640625 135.89453125 279.88640625 135.89453125 280.56640625 C136.55453125 280.89640625 137.21453125 281.22640625 137.89453125 281.56640625 C137.89453125 282.88640625 137.89453125 284.20640625 137.89453125 285.56640625 C129.64378794 290.20515749 129.64378794 290.20515749 125.39453125 292.25390625 C122.77502085 293.31872378 122.77502085 293.31872378 121.89453125 295.56640625 C120.25504479 296.02418494 118.61425609 296.47772812 116.96777344 296.90966797 C113.08051196 298.14103083 109.59006464 300.18653314 106.01953125 302.12890625 C104.78529419 302.78838257 104.78529419 302.78838257 103.52612305 303.46118164 C100.97869795 304.8230771 98.4360578 306.19353905 95.89453125 307.56640625 C93.55938307 308.82652473 91.2234906 310.08508903 88.88427734 311.33764648 C87.47961928 312.09006312 86.0774 312.84705907 84.67822266 313.60961914 C75.60791234 318.47381983 66.17278553 321.96531079 55.76953125 321.94140625 C55.02960938 321.93979492 54.2896875 321.93818359 53.52734375 321.93652344 C43.24427643 321.71047325 34.05346675 318.01570825 24.89453125 313.56640625 C24.89453125 312.90640625 24.89453125 312.24640625 24.89453125 311.56640625 C23.79818359 311.40205078 23.79818359 311.40205078 22.6796875 311.234375 C19.73152087 310.52731119 17.86944989 309.51470405 15.33203125 307.87890625 C11.66136886 305.59288721 7.9761779 303.57151673 4.08203125 301.69140625 C-1.31655825 299.0435593 -6.34995225 295.99831431 -11.4375 292.80078125 C-18.48943048 288.4372875 -25.83434926 284.54879268 -33.10546875 280.56640625 C-33.10546875 279.90640625 -33.10546875 279.24640625 -33.10546875 278.56640625 C-33.76546875 278.52515625 -34.42546875 278.48390625 -35.10546875 278.44140625 C-42.49810974 276.28521929 -48.25374533 270.15698542 -52.2265625 263.76171875 C-60.38271809 248.88345691 -58.25674401 229.1160261 -58.23828125 212.67578125 C-58.23938548 210.60788453 -58.24081864 208.53998796 -58.24255371 206.47209167 C-58.24546021 200.90880609 -58.24114516 195.34555008 -58.23444366 189.78226852 C-58.23045909 186.30798086 -58.2279504 182.83369475 -58.22576904 179.35940552 C-58.20115377 145.1492983 -58.05786331 110.94009209 -57.75759125 76.73127747 C-57.73051204 73.50905748 -57.70687127 70.28682858 -57.68414307 67.0645752 C-57.64787894 62.0106445 -57.60168208 56.95690133 -57.54753113 51.90313148 C-57.52913295 50.05714128 -57.51388975 48.21111643 -57.50209045 46.36507225 C-57.48524537 43.84467348 -57.45632552 41.32468889 -57.42431641 38.80444336 C-57.42215685 38.08155499 -57.41999729 37.35866661 -57.41777229 36.61387253 C-57.30072069 29.44652924 -55.89991905 23.21341574 -52.10546875 17.06640625 C-51.58984375 16.21046875 -51.07421875 15.35453125 -50.54296875 14.47265625 C-50.06859375 13.84359375 -49.59421875 13.21453125 -49.10546875 12.56640625 C-48.44546875 12.56640625 -47.78546875 12.56640625 -47.10546875 12.56640625 C-47.10546875 11.90640625 -47.10546875 11.24640625 -47.10546875 10.56640625 C-34.94403892 -2.44349543 -16.31189646 -0.03934407 0 0 Z " fill="#7F7F7F" transform="translate(110.10546875,2.43359375)"/>
<path d="M0 0 C66.26470588 0 66.26470588 0 74.4375 7.125 C78.04122257 11.44946708 77.50659762 17.03332335 77.484375 22.39453125 C76.75019316 27.85944927 74.23882845 31.52795149 70 35 C67.765625 35.73046875 67.765625 35.73046875 66 36 C65.67 37.98 65.34 39.96 65 42 C65.804375 42.2475 66.60875 42.495 67.4375 42.75 C74.05618856 45.07234686 80.03715224 47.96096805 86.0625 51.5625 C90.62519072 54.28492494 94.9566625 56.35121659 100 58 C100 58.66 100 59.32 100 60 C101.32 60 102.64 60 104 60 C104 60.66 104 61.32 104 62 C104.99 62.2475 105.98 62.495 107 62.75 C111.23096832 63.95884809 115.26158395 65.66576949 119 68 C119.33 68.66 119.66 69.32 120 70 C121.81535081 70.86897523 121.81535081 70.86897523 123.9375 71.5625 C126.03793267 72.29822324 128.00802626 73.00401313 130 74 C130 74.66 130 75.32 130 76 C131.32 75.67 132.64 75.34 134 75 C134 75.99 134 76.98 134 78 C134.58136719 78.26683594 135.16273438 78.53367187 135.76171875 78.80859375 C144.8842781 83.66440632 152.07808756 92.47952557 155.25 102.1875 C155.70052734 103.71890625 155.70052734 103.71890625 156.16015625 105.28125 C156.95551774 108.15518944 156.95551774 108.15518944 158.6875 111.1875 C161.9571987 118.19399722 161.17199437 127.08207617 161.203125 134.68359375 C161.20882507 135.77914078 161.21452515 136.87468781 161.22039795 138.00343323 C161.22979659 140.30867563 161.23636135 142.61393115 161.24023438 144.91918945 C161.24996136 148.42357936 161.28104307 151.9273874 161.3125 155.43164062 C161.31902951 157.68228822 161.32428018 159.93293997 161.328125 162.18359375 C161.3404718 163.21931015 161.3528186 164.25502655 161.36553955 165.3221283 C161.33175114 176.48233949 158.56700998 185.62565984 151 194 C147.50080843 196.94561845 143.82496242 199.49839332 140 202 C138.9275 202.763125 137.855 203.52625 136.75 204.3125 C133.60592944 206.24181603 130.422671 207.6309316 127 209 C125.5459375 209.5878125 125.5459375 209.5878125 124.0625 210.1875 C123.381875 210.455625 122.70125 210.72375 122 211 C121.7834375 209.576875 121.7834375 209.576875 121.5625 208.125 C120.39662793 204.91055488 120.39662793 204.91055488 118.14453125 204.296875 C116.58143741 204.00631711 115.01462786 203.73529327 113.4453125 203.48046875 C107.09319935 202.23236984 102.15779144 198.91375352 98 194 C97.67 193.01 97.34 192.02 97 191 C96.01 190.67 95.02 190.34 94 190 C94 189.34 94 188.68 94 188 C93.34 188 92.68 188 92 188 C91.70996094 187.11248047 91.70996094 187.11248047 91.4140625 186.20703125 C91.02347656 185.02173828 91.02347656 185.02173828 90.625 183.8125 C90.36976563 183.03519531 90.11453125 182.25789062 89.8515625 181.45703125 C89.0494134 179.00554705 89.0494134 179.00554705 87.95898438 176.7734375 C86.80197582 173.42730279 86.77351723 170.70579463 86.8046875 167.16796875 C86.81113281 165.87568359 86.81757813 164.58339844 86.82421875 163.25195312 C86.84092673 161.8971327 86.85785658 160.54231499 86.875 159.1875 C86.88503997 157.81315749 86.89416404 156.43880797 86.90234375 155.06445312 C86.92588758 151.70945683 86.95877433 148.35481801 87 145 C84.03 145.99 81.06 146.98 78 148 C78 148.66 78 149.32 78 150 C77.0615625 150.37253906 76.123125 150.74507812 75.15625 151.12890625 C70.04479626 153.32081486 65.30322155 156.14864222 60.5 158.9375 C59.13294922 159.72543945 59.13294922 159.72543945 57.73828125 160.52929688 C56.84496094 161.04427734 55.95164063 161.55925781 55.03125 162.08984375 C54.16894775 162.58629395 53.30664551 163.08274414 52.41821289 163.59423828 C50.91209834 164.46977665 49.41254339 165.35682549 47.92358398 166.26123047 C43.70748183 168.79504556 40.94199976 169.40342855 36 169 C36 168.34 36 167.68 36 167 C34.948125 166.731875 33.89625 166.46375 32.8125 166.1875 C29.40927088 165.12747781 26.86841082 164.08611696 24 162 C24 161.34 24 160.68 24 160 C23.16855469 159.75378906 22.33710938 159.50757813 21.48046875 159.25390625 C17.51580976 157.82556109 13.99145807 155.97166178 10.3125 153.9375 C5.30290526 151.15217401 5.30290526 151.15217401 0 149 C0 99.83 0 50.66 0 0 Z " fill="#7E7E7E" transform="translate(126,76)"/>
<path d="M0 0 C13.24894787 -0.11647647 26.49777148 -0.20500888 39.74712944 -0.25906086 C45.90110391 -0.2850191 52.05472495 -0.32016271 58.20849609 -0.37719727 C64.16079242 -0.43201159 70.11275142 -0.46152375 76.06528091 -0.47438622 C78.3224022 -0.48353814 80.57950759 -0.5014063 82.836483 -0.52865028 C99.69732923 -0.72385706 115.444677 0.68187018 130.5625 8.875 C131.54512817 9.38861084 131.54512817 9.38861084 132.54760742 9.91259766 C137.83791768 12.75168489 142.4999482 16.0182357 147 20 C148.32064453 21.09054688 148.32064453 21.09054688 149.66796875 22.203125 C158.01013632 29.33711658 165.0832552 37.61724978 169 48 C169.8004061 49.54798011 170.61329252 51.08956052 171.4375 52.625 C181.19675924 71.91321147 181.41102674 101.31820787 174.91015625 121.82739258 C171.70979235 130.72161657 167.3066754 140.85898734 161 148 C158.16015625 149.015625 158.16015625 149.015625 156 149 C156 148.34 156 147.68 156 147 C155.28972656 146.81824219 154.57945312 146.63648438 153.84765625 146.44921875 C152.92855469 146.19785156 152.00945312 145.94648438 151.0625 145.6875 C150.14597656 145.44386719 149.22945312 145.20023438 148.28515625 144.94921875 C147.53105469 144.63597656 146.77695313 144.32273438 146 144 C145.67 143.01 145.34 142.02 145 141 C143.02604477 140.25976679 141.01728138 139.61238899 139 139 C135.97398986 137.72355598 132.98607908 136.36696065 130 135 C130 134.34 130 133.68 130 133 C128.68 133 127.36 133 126 133 C126 132.34 126 131.68 126 131 C124.1128125 130.443125 124.1128125 130.443125 122.1875 129.875 C117.35681678 128.27488358 113.12643401 125.98149208 108.70703125 123.484375 C105.5482317 121.75227712 102.3226633 120.30045689 99.015625 118.87890625 C96.29015964 117.69047659 93.64504727 116.3564345 91 115 C91.1875 112.1875 91.1875 112.1875 92 109 C93.63790712 107.95355934 95.31008021 106.9601817 97 106 C101.57269793 101.42730207 102.35759662 98.35096319 102.5 91.875 C102.45703117 86.96581131 101.91902092 83.98626585 99 80 C93.76568179 75.19008597 88.77378821 72.64054886 81.62744141 72.56762695 C80.38660797 72.54783279 79.14577454 72.52803864 77.86734009 72.50764465 C76.52874911 72.50087653 75.19015647 72.49442947 73.8515625 72.48828125 C72.4700665 72.47141998 71.08858571 72.4532678 69.7071228 72.43388367 C66.0871862 72.38653403 62.46731128 72.35662801 58.84716797 72.33044434 C55.14668604 72.3005624 51.44641629 72.25405849 47.74609375 72.20898438 C40.49750147 72.12312266 33.24889347 72.05570187 26 72 C25.99120064 71.1810022 25.99120064 71.1810022 25.98222351 70.34545898 C25.91801676 64.63443333 25.83352861 58.92395704 25.73754883 53.21337891 C25.70440718 51.08552316 25.67634213 48.95758177 25.65356445 46.82958984 C25.61982028 43.76102392 25.56749432 40.69323518 25.51171875 37.625 C25.50532883 36.68197021 25.4989389 35.73894043 25.49235535 34.76733398 C25.30233082 26.12414276 23.08805778 18.39246067 17 12 C9.80923496 5.84509483 9.80923496 5.84509483 1 3 C0.67 2.01 0.34 1.02 0 0 Z " fill="#EBEBEA" transform="translate(100,3)"/>
<path d="M0 0 C0.0093457 0.8156543 0.01869141 1.63130859 0.02832031 2.47167969 C0.07288091 5.55859313 0.13473139 8.64458981 0.20751953 11.73095703 C0.24893359 13.69931469 0.27120453 15.66804576 0.29296875 17.63671875 C0.48581579 25.23489204 1.43009256 31.60104659 4.15136719 38.71582031 C5 41 5 41 5 43 C5.66 43 6.32 43 7 43 C12 48.47619048 12 48.47619048 12 51 C12.58394531 51.29003906 13.16789063 51.58007812 13.76953125 51.87890625 C15.12756604 52.56149116 16.48064506 53.25421698 17.82421875 53.96484375 C22.73763548 56.52970909 27.70339025 58.38159147 33 60 C33 60.66 33 61.32 33 62 C33.66 62.33 34.32 62.66 35 63 C35 64.32 35 65.64 35 67 C26.74925669 71.63875124 26.74925669 71.63875124 22.5 73.6875 C19.8804896 74.75231753 19.8804896 74.75231753 19 77 C17.36051354 77.45777869 15.71972484 77.91132187 14.07324219 78.34326172 C10.18598071 79.57462458 6.69553339 81.62012689 3.125 83.5625 C2.30217529 84.00215088 1.47935059 84.44180176 0.6315918 84.89477539 C-1.9158333 86.25667085 -4.45847345 87.6271328 -7 89 C-9.33514818 90.26011848 -11.67104065 91.51868278 -14.01025391 92.77124023 C-15.41491197 93.52365687 -16.81713125 94.28065282 -18.21630859 95.04321289 C-27.28661891 99.90741358 -36.72174572 103.39890454 -47.125 103.375 C-47.86492187 103.37338867 -48.60484375 103.37177734 -49.3671875 103.37011719 C-59.65025482 103.144067 -68.8410645 99.449302 -78 95 C-78 94.34 -78 93.68 -78 93 C-78.73089844 92.89042969 -79.46179688 92.78085937 -80.21484375 92.66796875 C-83.16301038 91.96090494 -85.02508136 90.9482978 -87.5625 89.3125 C-91.23316239 87.02648096 -94.91835335 85.00511048 -98.8125 83.125 C-104.45966213 80.3596371 -109.75725576 77.17278928 -115.06640625 73.8203125 C-117.42741417 72.35529294 -119.78734825 71.0291688 -122.25 69.75 C-125 68 -125 68 -125.9375 65.75 C-125.958125 65.1725 -125.97875 64.595 -126 64 C-125.05125 63.731875 -124.1025 63.46375 -123.125 63.1875 C-122.485625 63.00058594 -121.84625 62.81367188 -121.1875 62.62109375 C-119.67384183 62.19132295 -118.15209658 61.78941872 -116.625 61.41015625 C-110.99694867 59.92399894 -106.72236836 57.82083167 -102.0078125 54.40234375 C-100 53 -100 53 -97.8671875 52.06640625 C-95.49533193 50.71176907 -95.06320344 49.47928043 -94 47 C-92.76468188 45.07971382 -91.49785411 43.18432695 -90.21875 41.29296875 C-86.45757441 34.21665443 -86.58921968 26.91275885 -86.375 19.0625 C-86.33632812 17.90169922 -86.29765625 16.74089844 -86.2578125 15.54492188 C-86.16404613 12.69676831 -86.07834083 9.84861262 -86 7 C-84.68 7 -83.36 7 -82 7 C-82 7.66 -82 8.32 -82 9 C-81.32582031 8.76410156 -80.65164062 8.52820313 -79.95703125 8.28515625 C-75.8771979 7.8917245 -73.16210805 9.53737963 -69.6875 11.4375 C-69.04232422 11.77587891 -68.39714844 12.11425781 -67.73242188 12.46289062 C-66.14827802 13.29603295 -64.57318718 14.14634904 -63 15 C-63 15.66 -63 16.32 -63 17 C-62.07767578 17.29003906 -62.07767578 17.29003906 -61.13671875 17.5859375 C-60.32847656 17.84632813 -59.52023438 18.10671875 -58.6875 18.375 C-57.88699219 18.63023437 -57.08648437 18.88546875 -56.26171875 19.1484375 C-54 20 -54 20 -51 22 C-51 22.66 -51 23.32 -51 24 C-42.79389124 22.75534961 -36.78662112 19.34773293 -29.75 15.0625 C-28.6878125 14.42892578 -27.625625 13.79535156 -26.53125 13.14257812 C-20.92039213 9.7998768 -20.92039213 9.7998768 -15.41113281 6.29467773 C-13 5 -13 5 -9 5 C-9 4.34 -9 3.68 -9 3 C-5.63316085 0.56839395 -4.26649636 0 0 0 Z " fill="#AEAEAD" transform="translate(213,221)"/>
<path d="M0 0 C66.26470588 0 66.26470588 0 74.4375 7.125 C78.04350667 11.45220801 77.51144741 17.04198626 77.47265625 22.40625 C76.73935382 27.98177262 74.24518829 31.42116402 70 35 C64.21311735 39.10752349 59.80186555 39.53923565 52.8125 39.5625 C41.06279218 39.88503701 30.07199257 40.71007575 21 49 C13.01520015 58.13204121 11.54537911 66.29587351 11.6640625 78.15234375 C12.08882434 83.01734849 13.36302874 87.17362602 15.125 91.70703125 C16 94 16 94 16 96 C16.66 96 17.32 96 18 96 C19.04239561 97.19342452 20.03409725 98.43136204 21 99.6875 C26.04926127 105.64520577 32.36084765 108.70380611 40 110 C41.81713842 110.10840072 43.63698808 110.17650468 45.45703125 110.2109375 C46.48763672 110.23929687 47.51824219 110.26765625 48.58007812 110.296875 C50.72313863 110.34867102 52.86639279 110.39302627 55.00976562 110.4296875 C62.1442247 110.6430545 68.74386937 111.01521358 74.25 116.0625 C75.11625 117.0215625 75.11625 117.0215625 76 118 C76.639375 118.26941406 77.27875 118.53882813 77.9375 118.81640625 C80.67764811 120.38887761 81.3920806 122.05019236 82.75 124.875 C83.17796875 125.73867187 83.6059375 126.60234375 84.046875 127.4921875 C85 130 85 130 85 134 C85.66 134 86.32 134 87 134 C87 137.3 87 140.6 87 144 C80.25 148 80.25 148 78 148 C78 148.66 78 149.32 78 150 C77.0615625 150.37253906 76.123125 150.74507812 75.15625 151.12890625 C70.04479626 153.32081486 65.30322155 156.14864222 60.5 158.9375 C59.13294922 159.72543945 59.13294922 159.72543945 57.73828125 160.52929688 C56.84496094 161.04427734 55.95164063 161.55925781 55.03125 162.08984375 C54.16894775 162.58629395 53.30664551 163.08274414 52.41821289 163.59423828 C50.91209834 164.46977665 49.41254339 165.35682549 47.92358398 166.26123047 C43.70748183 168.79504556 40.94199976 169.40342855 36 169 C36 168.34 36 167.68 36 167 C34.948125 166.731875 33.89625 166.46375 32.8125 166.1875 C29.40927088 165.12747781 26.86841082 164.08611696 24 162 C24 161.34 24 160.68 24 160 C23.16855469 159.75378906 22.33710938 159.50757813 21.48046875 159.25390625 C17.51580976 157.82556109 13.99145807 155.97166178 10.3125 153.9375 C5.30290526 151.15217401 5.30290526 151.15217401 0 149 C0 99.83 0 50.66 0 0 Z " fill="#040404" transform="translate(126,76)"/>
<path d="M0 0 C0.46148437 0.4021875 0.92296875 0.804375 1.3984375 1.21875 C1.3984375 1.87875 1.3984375 2.53875 1.3984375 3.21875 C1.9553125 3.425 2.5121875 3.63125 3.0859375 3.84375 C7.43119305 6.42741546 10.45239174 10.59439343 12.3984375 15.21875 C12.65011978 17.20182896 12.65011978 17.20182896 12.65240479 19.32411194 C12.65804443 20.13303391 12.66368408 20.94195587 12.66949463 21.77539062 C12.66544617 22.65396729 12.66139771 23.53254395 12.65722656 24.43774414 C12.6607312 25.36985214 12.66423584 26.30196014 12.66784668 27.26231384 C12.67664832 30.34292042 12.67082079 33.42329734 12.6640625 36.50390625 C12.66540948 38.6433466 12.6673503 40.78278665 12.66986084 42.92222595 C12.67280988 47.40529292 12.66852104 51.88828018 12.65917969 56.37133789 C12.64777844 62.12397883 12.65435033 67.8764333 12.66632462 73.62906742 C12.67354323 78.04619254 12.67125539 82.46327327 12.66606903 86.8803997 C12.6647329 89.00193745 12.66637898 91.12347921 12.67102814 93.24501228 C12.67609409 96.20650069 12.66838237 99.16768472 12.65722656 102.12915039 C12.66127502 103.00975128 12.66532349 103.89035217 12.66949463 104.79763794 C12.62696955 110.87595192 12.62696955 110.87595192 10.3984375 114.21875 C7.18521997 113.57610649 4.3311003 112.36852462 1.34375 111.04296875 C-0.7376134 110.16110595 -2.84530856 109.40868195 -4.9765625 108.65625 C-8.6015625 107.21875 -8.6015625 107.21875 -9.6015625 105.21875 C-18.28264991 102.67713886 -29.66383532 102.78548524 -37.8515625 106.65625 C-38.66109375 107.10871094 -39.470625 107.56117188 -40.3046875 108.02734375 C-42.74671709 109.29404277 -44.89475204 109.80121009 -47.6015625 110.21875 C-47.6015625 110.87875 -47.6015625 111.53875 -47.6015625 112.21875 C-49.0625 113.7265625 -49.0625 113.7265625 -50.9765625 115.34375 C-51.60304688 115.88257813 -52.22953125 116.42140625 -52.875 116.9765625 C-54.6015625 118.21875 -54.6015625 118.21875 -56.6015625 118.21875 C-56.7253125 119.023125 -56.8490625 119.8275 -56.9765625 120.65625 C-57.2859375 121.9246875 -57.2859375 121.9246875 -57.6015625 123.21875 C-58.2615625 123.54875 -58.9215625 123.87875 -59.6015625 124.21875 C-59.67116984 110.94468812 -59.7244284 97.67066989 -59.75699902 84.39646244 C-59.77263375 78.23226014 -59.79383223 72.06818301 -59.82788086 65.90405273 C-59.8605521 59.95181999 -59.878432 53.99970741 -59.88619423 48.04739189 C-59.89172377 45.78007555 -59.90252158 43.51276555 -59.91875267 41.24550056 C-59.94062981 38.06204298 -59.94352508 34.87907768 -59.94213867 31.69555664 C-59.9529245 30.76478806 -59.96371033 29.83401947 -59.974823 28.87504578 C-59.9382863 21.08724285 -58.46381762 13.89091441 -53.5390625 7.65625 C-53.03246094 6.99496094 -52.52585937 6.33367187 -52.00390625 5.65234375 C-51.54113281 5.17925781 -51.07835937 4.70617187 -50.6015625 4.21875 C-49.9415625 4.21875 -49.2815625 4.21875 -48.6015625 4.21875 C-48.6015625 3.55875 -48.6015625 2.89875 -48.6015625 2.21875 C-36.9427839 -9.4400286 -13.05172596 -8.46040734 0 0 Z " fill="#B2B2B1" transform="translate(112.6015625,106.78125)"/>
<path d="M0 0 C0.66 0.33 1.32 0.66 2 1 C1.67 2.32 1.34 3.64 1 5 C1.804375 5.2475 2.60875 5.495 3.4375 5.75 C10.05618856 8.07234686 16.03715224 10.96096805 22.0625 14.5625 C26.62519072 17.28492494 30.9566625 19.35121659 36 21 C36 21.66 36 22.32 36 23 C37.32 23 38.64 23 40 23 C40 23.66 40 24.32 40 25 C41.485 25.37125 41.485 25.37125 43 25.75 C47.23096832 26.95884809 51.26158395 28.66576949 55 31 C55.495 31.99 55.495 31.99 56 33 C57.81535081 33.86897523 57.81535081 33.86897523 59.9375 34.5625 C62.03793267 35.29822324 64.00802626 36.00401313 66 37 C66 37.66 66 38.32 66 39 C67.32 38.67 68.64 38.34 70 38 C63.61781488 51.93597909 47.39084619 63.06624399 33.5 68.25 C32.22938721 68.64964966 32.22938721 68.64964966 30.93310547 69.05737305 C29.04299283 69.66480811 27.16710552 70.31948815 25.31347656 71.03051758 C16.11360032 74.34022915 7.54145636 74.58472813 -2.14892578 74.46655273 C-4.7600794 74.43738742 -7.36921889 74.44602835 -9.98046875 74.45898438 C-11.66928053 74.45275034 -13.35808604 74.44436203 -15.046875 74.43359375 C-15.81271912 74.43652939 -16.57856323 74.43946503 -17.36761475 74.44248962 C-28.0598099 74.25876265 -37.19049913 70.15891321 -44.6796875 62.62109375 C-46 61 -46 61 -46 59 C-46.66 59 -47.32 59 -48 59 C-48.64633275 57.22934889 -49.2920483 55.45847247 -49.9375 53.6875 C-50.47697266 52.20830078 -50.47697266 52.20830078 -51.02734375 50.69921875 C-54.21752845 41.84613592 -54.29153543 31.2162992 -51.09765625 22.2734375 C-46.93076781 13.64308494 -40.37873046 7.53756048 -31.49609375 4.00390625 C-22.22451715 1.24749159 -12.45044513 1.36895095 -2.85083008 1.15771484 C-0.98406176 1.19890053 -0.98406176 1.19890053 0 0 Z " fill="#B2B2B0" transform="translate(190,113)"/>
<path d="M0 0 C0.495 1.485 0.495 1.485 1 3 C1.70382813 2.92136719 2.40765625 2.84273438 3.1328125 2.76171875 C8.94815571 3.24501022 13.90833315 8.01634081 18 12 C22.87678444 18.16014877 26.13579274 23.65778326 26.11352539 31.58496094 C26.11340454 32.49810059 26.11328369 33.41124023 26.11315918 34.35205078 C26.10804321 35.30321777 26.10292725 36.25438477 26.09765625 37.234375 C26.09664917 38.11496582 26.09564209 38.99555664 26.09460449 39.90283203 C26.08938133 43.18523464 26.07542006 46.46761866 26.0625 49.75 C26.041875 57.0925 26.02125 64.435 26 72 C46.46 72 66.92 72 88 72 C88 72.33 88 72.66 88 73 C52.36 73 16.72 73 -20 73 C-20 72.34 -20 71.68 -20 71 C-20.78375 70.95875 -21.5675 70.9175 -22.375 70.875 C-32.11055027 68.52503959 -38.71368973 62.29075999 -44 54 C-48.53112693 45.73107477 -48.15864487 34.73444099 -46.375 25.6875 C-44.542646 20.77345973 -42.16555429 16.19780025 -39 12 C-38.34 12 -37.68 12 -37 12 C-37 11.34 -37 10.68 -37 10 C-27.01487235 -0.68176446 -13.62628461 -0.58748053 0 0 Z " fill="#B4B4B3" transform="translate(100,3)"/>
<path d="M0 0 C0.495 0.99 0.495 0.99 1 2 C2.78383667 2.75877483 4.60329607 3.43519749 6.4375 4.0625 C11.89873418 5.94936709 11.89873418 5.94936709 14 7 C14.495 8.485 14.495 8.485 15 10 C17.31979381 11.03101947 19.65429915 12.02936517 22 13 C23.9375 14.5625 23.9375 14.5625 25 16 C25 16.66 25 17.32 25 18 C25.66 18 26.32 18 27 18 C32.09547418 24.58165415 32.18535135 32.61502546 32.25 40.5625 C32.25926514 41.27051758 32.26853027 41.97853516 32.27807617 42.70800781 C32.24824406 47.75957939 31.3776851 52.13983312 30 57 C29.34 57 28.68 57 28 57 C27.9071875 58.051875 27.9071875 58.051875 27.8125 59.125 C26.68646012 63.10944879 24.86106734 65.00269135 22 68 C21.01 68.33 20.02 68.66 19 69 C17.9790625 70.175625 17.9790625 70.175625 16.9375 71.375 C9.30395784 78.19646321 -1.28066682 77.69834119 -10.98486328 77.16845703 C-15.54918203 76.78689901 -19.85561843 75.98834491 -24 74 C-25.8125 71.75 -25.8125 71.75 -27 69 C-27.96614162 67.76442733 -28.96963632 66.55754815 -30 65.375 C-30.495 64.80523437 -30.99 64.23546875 -31.5 63.6484375 C-32.96738448 61.98648016 -32.96738448 61.98648016 -34.58203125 60.546875 C-40.25347785 54.35984235 -39.52662854 43.86327109 -39.2890625 36.0078125 C-38.88320013 28.67159431 -36.56150719 22.73867033 -32 17 C-31.34 17 -30.68 17 -30 17 C-30 16.34 -30 15.68 -30 15 C-29.34 15 -28.68 15 -28 15 C-28 14.34 -28 13.68 -28 13 C-20.52160825 6.70582213 -10.19552444 -1.35940326 0 0 Z " fill="#E7E7E5" transform="translate(170,247)"/>
<path d="M0 0 C0.33 0 0.66 0 1 0 C1 33 1 66 1 100 C0.01 100.495 0.01 100.495 -1 101 C-2.32 100.01 -3.64 99.02 -5 98 C-4.01 98 -3.02 98 -2 98 C-0.66406049 93.99218148 -0.82209836 90.11953826 -0.79467773 85.9387207 C-0.78477814 85.01169342 -0.77487854 84.08466614 -0.76467896 83.12954712 C-0.73306064 80.06165125 -0.70830514 76.99373989 -0.68359375 73.92578125 C-0.66302452 71.80014134 -0.64202805 69.67450553 -0.62062073 67.5488739 C-0.56539694 61.95115471 -0.51598897 56.35339859 -0.46777344 50.75561523 C-0.41756069 45.04472563 -0.36187344 39.33388974 -0.30664062 33.62304688 C-0.19905527 22.41541045 -0.09761109 11.20772742 0 0 Z " fill="#8C8D91" transform="translate(125,123)"/>
<path d="M0 0 C0.66 0 1.32 0 2 0 C7 5.47619048 7 5.47619048 7 8 C7.58394531 8.29003906 8.16789063 8.58007812 8.76953125 8.87890625 C10.12756604 9.56149116 11.48064506 10.25421698 12.82421875 10.96484375 C17.73763548 13.52970909 22.70339025 15.38159147 28 17 C28 17.33 28 17.66 28 18 C17.92776909 17.6126065 9.15282144 12.91022368 2.20703125 5.7109375 C0.87206894 3.81866083 0.41027703 2.26393829 0 0 Z " fill="#979796" transform="translate(218,264)"/>
<path d="M0 0 C0.33 0 0.66 0 1 0 C1 13.2 1 26.4 1 40 C0.01 40.495 0.01 40.495 -1 41 C-2.32 40.01 -3.64 39.02 -5 38 C-4.01 38 -3.02 38 -2 38 C-0.77681134 34.33043403 -0.76883876 30.87678997 -0.68359375 27.05078125 C-0.66281265 26.27816452 -0.64203156 25.50554779 -0.62062073 24.70951843 C-0.55528962 22.2439352 -0.49631685 19.77824639 -0.4375 17.3125 C-0.39429913 15.63996309 -0.35068434 13.96743681 -0.30664062 12.29492188 C-0.1996251 8.1967225 -0.09831143 4.09841704 0 0 Z " fill="#97989B" transform="translate(125,183)"/>
<path d="M0 0 C0.66 0.33 1.32 0.66 2 1 C1.61328125 1.42410156 1.2265625 1.84820312 0.828125 2.28515625 C-2.7394097 6.30304806 -5.48173429 10.25403771 -8 15 C-8.66 15 -9.32 15 -10 15 C-9.7018576 13.65835921 -9.35858516 12.32676508 -9 11 C-8.690625 9.824375 -8.690625 9.824375 -8.375 8.625 C-6.388259 4.83213082 -3.34171803 2.60010681 0 0 Z " fill="#989899" transform="translate(63,219)"/>
<path d="M0 0 C0.66 0.33 1.32 0.66 2 1 C-0.22148208 5.44296417 -2.73146336 7.51002029 -7 10 C-7.99 10.33 -8.98 10.66 -10 11 C-9.67 10.01 -9.34 9.02 -9 8 C-8.34 8 -7.68 8 -7 8 C-7 7.34 -7 6.68 -7 6 C-5.46875 4.4921875 -5.46875 4.4921875 -3.5 2.875 C-2.8503125 2.33617187 -2.200625 1.79734375 -1.53125 1.2421875 C-0.77328125 0.62730469 -0.77328125 0.62730469 0 0 Z " fill="#9D9D9D" transform="translate(70,7)"/>
<path d="M0 0 C0.66 0 1.32 0 2 0 C0.68954637 3.93136089 -0.83208046 6.31206827 -4 9 C-4.99 9.33 -5.98 9.66 -7 10 C-8.00642948 11.32848691 -9.00692179 12.66150329 -10 14 C-10.66 14 -11.32 14 -12 14 C-11.7421875 12.15234375 -11.7421875 12.15234375 -11 10 C-9.2578125 8.69140625 -9.2578125 8.69140625 -7.125 7.5625 C-3.54727684 5.50530918 -1.91376637 3.72121238 0 0 Z " fill="#CCCCCC" transform="translate(196,306)"/>
<path d="M0 0 C3.24271506 0.5590888 4.93057424 1.4132178 7 4 C7 4.66 7 5.32 7 6 C7.66 6 8.32 6 9 6 C10.6875 8.375 10.6875 8.375 12 11 C11.67 11.66 11.34 12.32 11 13 C9.53927468 11.39801112 8.08150284 9.79332884 6.625 8.1875 C5.81289062 7.29417969 5.00078125 6.40085937 4.1640625 5.48046875 C2 3 2 3 0 0 Z " fill="#CBCBC9" transform="translate(188,259)"/>
<path d="M0 0 C-3.26545761 1.88391785 -6.28111761 2.49287967 -10 3 C-10 3.99 -10 4.98 -10 6 C-11.32 5.67 -12.64 5.34 -14 5 C-14.33 3.68 -14.66 2.36 -15 1 C-13.43784452 0.83013455 -11.8752548 0.66426036 -10.3125 0.5 C-9.44238281 0.4071875 -8.57226562 0.314375 -7.67578125 0.21875 C-5.10276661 0.00840136 -2.58015636 -0.03719144 0 0 Z " fill="#8D8D8D" transform="translate(98,282)"/>
<path d="M0 0 C2.64 0 5.28 0 8 0 C8.33 0.99 8.66 1.98 9 3 C9.99 3.33 10.98 3.66 12 4 C13.1875 6.0625 13.1875 6.0625 14 8 C10.41844487 6.34697456 7.27671443 4.18447628 4 2 C2.6808418 1.30570621 1.35350594 0.62469505 0 0 Z " fill="#5A5A59" transform="translate(190,187)"/>
<path d="M0 0 C0.66 0.33 1.32 0.66 2 1 C-1.63 4.63 -5.26 8.26 -9 12 C-9.66 11.67 -10.32 11.34 -11 11 C-9.71937515 9.2925002 -8.38232443 7.62626404 -7 6 C-6.34 6 -5.68 6 -5 6 C-5 5.34 -5 4.68 -5 4 C-3.37373596 2.61767557 -1.7074998 1.28062485 0 0 Z " fill="#A8A8A7" transform="translate(69,105)"/>
<path d="M0 0 C1.98 0.66 3.96 1.32 6 2 C6 2.66 6 3.32 6 4 C8.475 4.99 8.475 4.99 11 6 C10.67 6.66 10.34 7.32 10 8 C8.02 7.34 6.04 6.68 4 6 C4 5.01 4 4.02 4 3 C3.01 3 2.02 3 1 3 C0.67 2.01 0.34 1.02 0 0 Z " fill="#838383" transform="translate(144,234)"/>
<path d="M0 0 C2.64 0 5.28 0 8 0 C7.67 0.99 7.34 1.98 7 3 C4.4375 4.1875 4.4375 4.1875 2 5 C1.34 3.35 0.68 1.7 0 0 Z " fill="#909090" transform="translate(246,282)"/>
<path d="M0 0 C1.98 0 3.96 0 6 0 C6 0.66 6 1.32 6 2 C7.2065625 2.433125 7.2065625 2.433125 8.4375 2.875 C11 4 11 4 12 6 C7.76570244 4.68938409 3.92592596 3.05643741 0 1 C0 0.67 0 0.34 0 0 Z " fill="#D8D8D8" transform="translate(191,117)"/>
<path d="M0 0 C2.25133315 1.52509665 2.93983891 2.81834728 3.9375 5.3125 C1.9575 4.6525 -0.0225 3.9925 -2.0625 3.3125 C-2.0625 2.6525 -2.0625 1.9925 -2.0625 1.3125 C-3.0525 0.9825 -4.0425 0.6525 -5.0625 0.3125 C-2.0625 -0.6875 -2.0625 -0.6875 0 0 Z " fill="#C3C3C3" transform="translate(172.0625,245.6875)"/>
<path d="M0 0 C-0.33 1.32 -0.66 2.64 -1 4 C-3.31 3.67 -5.62 3.34 -8 3 C-7 1 -7 1 -4.5625 -0.1875 C-2 -1 -2 -1 0 0 Z " fill="#C4C4C4" transform="translate(192,114)"/>
<path d="M0 0 C0.99 0.66 1.98 1.32 3 2 C-2.625 5 -2.625 5 -6 5 C-3.375 1.125 -3.375 1.125 0 0 Z " fill="#A1A1A1" transform="translate(192,314)"/>
<path d="M0 0 C1.7074998 1.28062485 3.37373596 2.61767557 5 4 C5 4.66 5 5.32 5 6 C3.35 5.67 1.7 5.34 0 5 C-0.33 4.01 -0.66 3.02 -1 2 C-0.67 1.34 -0.34 0.68 0 0 Z " fill="#A6A7A7" transform="translate(141,314)"/>
<path d="M0 0 C-1.29009643 0.50403768 -2.58213789 1.00309926 -3.875 1.5 C-4.95394531 1.91765625 -4.95394531 1.91765625 -6.0546875 2.34375 C-8 3 -8 3 -10 3 C-9.67 2.01 -9.34 1.02 -9 0 C-2.25 -1.125 -2.25 -1.125 0 0 Z " fill="#868686" transform="translate(171,245)"/>
<path d="M0 0 C1.953125 0.7109375 1.953125 0.7109375 4 2 C4.609375 4.1640625 4.609375 4.1640625 4.75 6.625 C4.80671875 7.44226563 4.8634375 8.25953125 4.921875 9.1015625 C4.94765625 9.72804687 4.9734375 10.35453125 5 11 C3 10 3 10 2.1484375 7.71484375 C1.89320313 6.79832031 1.63796875 5.88179687 1.375 4.9375 C1.11460937 4.01839844 0.85421875 3.09929687 0.5859375 2.15234375 C0.39257812 1.44207031 0.19921875 0.73179687 0 0 Z " fill="#2F2F2F" transform="translate(279,174)"/>
<path d="M0 0 C0.99 0.33 1.98 0.66 3 1 C2.67 2.65 2.34 4.3 2 6 C1.01 6 0.02 6 -1 6 C-0.67 4.02 -0.34 2.04 0 0 Z " fill="#202020" transform="translate(274,123)"/>
<path d="M0 0 C1.24546405 2.49092811 0.7767578 3.41080733 0 6 C-1.65 6.33 -3.3 6.66 -5 7 C-1.125 1.125 -1.125 1.125 0 0 Z " fill="#BABABA" transform="translate(201,104)"/>
<path d="M0 0 C0.33 0.66 0.66 1.32 1 2 C0 5 0 5 -2.0625 6.1875 C-2.701875 6.455625 -3.34125 6.72375 -4 7 C-3.6875 4.625 -3.6875 4.625 -3 2 C-2.01 1.34 -1.02 0.68 0 0 Z " fill="#F5F5F5" transform="translate(205,102)"/>
</svg>
