<svg version="1.0" preserveAspectRatio="xMidYMid meet" viewBox="26.250000000000004 152.999996328 324 86.99999791200001" zoomAndPan="magnify" xmlns:xlink="http://www.w3.org/1999/xlink" xmlns="http://www.w3.org/2000/svg" style="max-height: 500px" width="324" height="86.99999791200001"><defs><g/></defs><g fill-opacity="1" fill="#000000"><g transform="translate(23.079948, 215.114047)"><g><path d="M 34.15625 -28.78125 C 36.1875 -28.46875 38.046875 -27.640625 39.734375 -26.296875 C 41.421875 -24.960938 42.753906 -23.304688 43.734375 -21.328125 C 44.722656 -19.347656 45.21875 -17.238281 45.21875 -15 C 45.21875 -12.164062 44.492188 -9.609375 43.046875 -7.328125 C 41.609375 -5.054688 39.515625 -3.265625 36.765625 -1.953125 C 34.015625 -0.648438 30.765625 0 27.015625 0 L 6.171875 0 L 6.171875 -55.890625 L 26.21875 -55.890625 C 30.019531 -55.890625 33.253906 -55.257812 35.921875 -54 C 38.597656 -52.75 40.601562 -51.050781 41.9375 -48.90625 C 43.269531 -46.769531 43.9375 -44.367188 43.9375 -41.703125 C 43.9375 -38.378906 43.039062 -35.632812 41.25 -33.46875 C 39.457031 -31.3125 37.09375 -29.75 34.15625 -28.78125 Z M 13.46875 -31.75 L 25.734375 -31.75 C 29.160156 -31.75 31.804688 -32.550781 33.671875 -34.15625 C 35.546875 -35.757812 36.484375 -37.976562 36.484375 -40.8125 C 36.484375 -43.644531 35.546875 -45.863281 33.671875 -47.46875 C 31.804688 -49.070312 29.109375 -49.875 25.578125 -49.875 L 13.46875 -49.875 Z M 26.375 -6.015625 C 30.007812 -6.015625 32.84375 -6.867188 34.875 -8.578125 C 36.90625 -10.285156 37.921875 -12.664062 37.921875 -15.71875 C 37.921875 -18.820312 36.851562 -21.265625 34.71875 -23.046875 C 32.582031 -24.835938 29.722656 -25.734375 26.140625 -25.734375 L 13.46875 -25.734375 L 13.46875 -6.015625 Z M 26.375 -6.015625"/></g></g></g><g fill-opacity="1" fill="#000000"><g transform="translate(72.230065, 215.114047)"><g><path d="M 45.140625 -43.9375 L 45.140625 0 L 37.84375 0 L 37.84375 -6.5 C 36.457031 -4.25 34.519531 -2.492188 32.03125 -1.234375 C 29.550781 0.015625 26.8125 0.640625 23.8125 0.640625 C 20.394531 0.640625 17.320312 -0.0664062 14.59375 -1.484375 C 11.863281 -2.898438 9.710938 -5.023438 8.140625 -7.859375 C 6.566406 -10.691406 5.78125 -14.140625 5.78125 -18.203125 L 5.78125 -43.9375 L 12.984375 -43.9375 L 12.984375 -19.171875 C 12.984375 -14.835938 14.078125 -11.503906 16.265625 -9.171875 C 18.460938 -6.847656 21.460938 -5.6875 25.265625 -5.6875 C 29.160156 -5.6875 32.226562 -6.890625 34.46875 -9.296875 C 36.71875 -11.703125 37.84375 -15.207031 37.84375 -19.8125 L 37.84375 -43.9375 Z M 45.140625 -43.9375"/></g></g></g><g fill-opacity="1" fill="#000000"><g transform="translate(123.545025, 215.114047)"><g><path d="M 3.453125 -22.125 C 3.453125 -26.625 4.359375 -30.566406 6.171875 -33.953125 C 7.992188 -37.347656 10.492188 -39.984375 13.671875 -41.859375 C 16.847656 -43.734375 20.414062 -44.671875 24.375 -44.671875 C 27.800781 -44.671875 30.984375 -43.878906 33.921875 -42.296875 C 36.859375 -40.722656 39.101562 -38.648438 40.65625 -36.078125 L 40.65625 -59.34375 L 48.03125 -59.34375 L 48.03125 0 L 40.65625 0 L 40.65625 -8.265625 C 39.207031 -5.640625 37.066406 -3.484375 34.234375 -1.796875 C 31.398438 -0.117188 28.085938 0.71875 24.296875 0.71875 C 20.390625 0.71875 16.847656 -0.238281 13.671875 -2.15625 C 10.492188 -4.082031 7.992188 -6.78125 6.171875 -10.25 C 4.359375 -13.726562 3.453125 -17.6875 3.453125 -22.125 Z M 40.65625 -22.046875 C 40.65625 -25.359375 39.984375 -28.242188 38.640625 -30.703125 C 37.304688 -33.171875 35.503906 -35.054688 33.234375 -36.359375 C 30.960938 -37.671875 28.460938 -38.328125 25.734375 -38.328125 C 23.015625 -38.328125 20.53125 -37.6875 18.28125 -36.40625 C 16.039062 -35.125 14.25 -33.253906 12.90625 -30.796875 C 11.570312 -28.335938 10.90625 -25.445312 10.90625 -22.125 C 10.90625 -18.757812 11.570312 -15.832031 12.90625 -13.34375 C 14.25 -10.863281 16.039062 -8.96875 18.28125 -7.65625 C 20.53125 -6.34375 23.015625 -5.6875 25.734375 -5.6875 C 28.460938 -5.6875 30.960938 -6.34375 33.234375 -7.65625 C 35.503906 -8.96875 37.304688 -10.863281 38.640625 -13.34375 C 39.984375 -15.832031 40.65625 -18.734375 40.65625 -22.046875 Z M 40.65625 -22.046875"/></g></g></g><g fill-opacity="1" fill="#000000"><g transform="translate(177.746449, 215.114047)"><g><path d="M 24.296875 -44.671875 C 28.085938 -44.671875 31.410156 -43.835938 34.265625 -42.171875 C 37.128906 -40.515625 39.257812 -38.429688 40.65625 -35.921875 L 40.65625 -43.9375 L 48.03125 -43.9375 L 48.03125 0.96875 C 48.03125 4.96875 47.175781 8.53125 45.46875 11.65625 C 43.757812 14.789062 41.3125 17.238281 38.125 19 C 34.945312 20.769531 31.242188 21.65625 27.015625 21.65625 C 21.242188 21.65625 16.429688 20.289062 12.578125 17.5625 C 8.734375 14.832031 6.46875 11.117188 5.78125 6.421875 L 12.984375 6.421875 C 13.785156 9.085938 15.441406 11.234375 17.953125 12.859375 C 20.472656 14.492188 23.492188 15.3125 27.015625 15.3125 C 31.023438 15.3125 34.300781 14.054688 36.84375 11.546875 C 39.382812 9.035156 40.65625 5.507812 40.65625 0.96875 L 40.65625 -8.265625 C 39.207031 -5.691406 37.066406 -3.550781 34.234375 -1.84375 C 31.398438 -0.132812 28.085938 0.71875 24.296875 0.71875 C 20.390625 0.71875 16.847656 -0.238281 13.671875 -2.15625 C 10.492188 -4.082031 7.992188 -6.78125 6.171875 -10.25 C 4.359375 -13.726562 3.453125 -17.6875 3.453125 -22.125 C 3.453125 -26.625 4.359375 -30.566406 6.171875 -33.953125 C 7.992188 -37.347656 10.492188 -39.984375 13.671875 -41.859375 C 16.847656 -43.734375 20.390625 -44.671875 24.296875 -44.671875 Z M 40.65625 -22.046875 C 40.65625 -25.359375 39.984375 -28.242188 38.640625 -30.703125 C 37.304688 -33.171875 35.503906 -35.054688 33.234375 -36.359375 C 30.960938 -37.671875 28.460938 -38.328125 25.734375 -38.328125 C 23.015625 -38.328125 20.53125 -37.6875 18.28125 -36.40625 C 16.039062 -35.125 14.25 -33.253906 12.90625 -30.796875 C 11.570312 -28.335938 10.90625 -25.445312 10.90625 -22.125 C 10.90625 -18.757812 11.570312 -15.832031 12.90625 -13.34375 C 14.25 -10.863281 16.039062 -8.96875 18.28125 -7.65625 C 20.53125 -6.34375 23.015625 -5.6875 25.734375 -5.6875 C 28.460938 -5.6875 30.960938 -6.34375 33.234375 -7.65625 C 35.503906 -8.96875 37.304688 -10.863281 38.640625 -13.34375 C 39.984375 -15.832031 40.65625 -18.734375 40.65625 -22.046875 Z M 40.65625 -22.046875"/></g></g></g><g fill-opacity="1" fill="#000000"><g transform="translate(231.947885, 215.114047)"><g><path d="M 9.9375 -51.078125 C 8.550781 -51.078125 7.375 -51.554688 6.40625 -52.515625 C 5.445312 -53.484375 4.96875 -54.660156 4.96875 -56.046875 C 4.96875 -57.441406 5.445312 -58.617188 6.40625 -59.578125 C 7.375 -60.535156 8.550781 -61.015625 9.9375 -61.015625 C 11.28125 -61.015625 12.414062 -60.535156 13.34375 -59.578125 C 14.28125 -58.617188 14.75 -57.441406 14.75 -56.046875 C 14.75 -54.660156 14.28125 -53.484375 13.34375 -52.515625 C 12.414062 -51.554688 11.28125 -51.078125 9.9375 -51.078125 Z M 13.46875 -43.9375 L 13.46875 0 L 6.171875 0 L 6.171875 -43.9375 Z M 13.46875 -43.9375"/></g></g></g><g fill-opacity="1" fill="#000000"><g transform="translate(251.67205, 215.114047)"><g><path d="M 15.078125 -37.921875 L 15.078125 -12.03125 C 15.078125 -9.894531 15.53125 -8.382812 16.4375 -7.5 C 17.34375 -6.613281 18.921875 -6.171875 21.171875 -6.171875 L 26.546875 -6.171875 L 26.546875 0 L 19.96875 0 C 15.90625 0 12.859375 -0.929688 10.828125 -2.796875 C 8.796875 -4.671875 7.78125 -7.75 7.78125 -12.03125 L 7.78125 -37.921875 L 2.078125 -37.921875 L 2.078125 -43.9375 L 7.78125 -43.9375 L 7.78125 -55.015625 L 15.078125 -55.015625 L 15.078125 -43.9375 L 26.546875 -43.9375 L 26.546875 -37.921875 Z M 15.078125 -37.921875"/></g></g></g><g fill-opacity="1" fill="#000000"><g transform="translate(280.857457, 215.114047)"><g><path d="M 9.9375 -51.078125 C 8.550781 -51.078125 7.375 -51.554688 6.40625 -52.515625 C 5.445312 -53.484375 4.96875 -54.660156 4.96875 -56.046875 C 4.96875 -57.441406 5.445312 -58.617188 6.40625 -59.578125 C 7.375 -60.535156 8.550781 -61.015625 9.9375 -61.015625 C 11.28125 -61.015625 12.414062 -60.535156 13.34375 -59.578125 C 14.28125 -58.617188 14.75 -57.441406 14.75 -56.046875 C 14.75 -54.660156 14.28125 -53.484375 13.34375 -52.515625 C 12.414062 -51.554688 11.28125 -51.078125 9.9375 -51.078125 Z M 13.46875 -43.9375 L 13.46875 0 L 6.171875 0 L 6.171875 -43.9375 Z M 13.46875 -43.9375"/></g></g></g><g fill-opacity="1" fill="#000000"><g transform="translate(300.581623, 215.114047)"><g><path d="M 27.578125 -44.75 C 32.929688 -44.75 37.265625 -43.128906 40.578125 -39.890625 C 43.890625 -36.660156 45.546875 -32 45.546875 -25.90625 L 45.546875 0 L 38.328125 0 L 38.328125 -24.859375 C 38.328125 -29.242188 37.226562 -32.597656 35.03125 -34.921875 C 32.84375 -37.242188 29.851562 -38.40625 26.0625 -38.40625 C 22.207031 -38.40625 19.144531 -37.203125 16.875 -34.796875 C 14.601562 -32.390625 13.46875 -28.890625 13.46875 -24.296875 L 13.46875 0 L 6.171875 0 L 6.171875 -43.9375 L 13.46875 -43.9375 L 13.46875 -37.6875 C 14.914062 -39.9375 16.878906 -41.675781 19.359375 -42.90625 C 21.847656 -44.132812 24.585938 -44.75 27.578125 -44.75 Z M 27.578125 -44.75"/></g></g></g></svg>