<?xml version="1.0" encoding="UTF-8"?>
<svg version="1.1" xmlns="http://www.w3.org/2000/svg" width="608" height="182">
<path d="M0 0 C200.64 0 401.28 0 608 0 C608 60.06 608 120.12 608 182 C407.36 182 206.72 182 0 182 C0 121.94 0 61.88 0 0 Z " fill="#010101" transform="translate(0,0)"/>
<path d="M0 0 C0.97860992 -0.0098568 0.97860992 -0.0098568 1.97698975 -0.01991272 C4.14375936 -0.0396717 6.3104591 -0.05132259 8.47729492 -0.0612793 C9.59207498 -0.06739259 9.59207498 -0.06739259 10.72937584 -0.07362938 C14.67358497 -0.09451499 18.61775921 -0.10879803 22.56201172 -0.11816406 C26.6055047 -0.12915017 30.64843535 -0.16345047 34.69173145 -0.20333576 C37.82422279 -0.22971482 40.9565855 -0.23787522 44.08917809 -0.24144554 C45.577285 -0.24626783 47.06538791 -0.25775471 48.55338478 -0.27648354 C63.020002 -0.44704439 74.19206703 2.09640726 85.64526367 11.17700195 C86.53213867 11.77512695 87.41901367 12.37325195 88.33276367 12.98950195 C97.01327904 21.20080027 102.45034693 32.33019456 102.98510742 44.2746582 C103.32570528 64.45646221 103.32570528 64.45646221 98.64526367 70.17700195 C98.02103257 71.41710392 97.41920803 72.66859011 96.83276367 73.92700195 C91.28123299 85.24034858 83.14840123 92.26994482 71.64526367 97.17700195 C70.37295898 97.73194336 70.37295898 97.73194336 69.07495117 98.2980957 C63.99792733 99.59915534 59.05257668 99.50546468 53.83276367 99.48950195 C52.79055664 99.50561523 51.74834961 99.52172852 50.67456055 99.53833008 C44.29166698 99.54233692 38.39010913 99.18865821 32.64526367 96.17700195 C30.48901367 93.9855957 30.48901367 93.9855957 29.14526367 91.61450195 C28.68120117 90.82946289 28.21713867 90.04442383 27.73901367 89.2355957 C25.07481203 84.22118761 24.97461404 79.82417669 25.64526367 74.17700195 C27.81243455 68.52554342 31.29709476 65.02177265 36.64526367 62.17700195 C41.11441835 60.73628762 45.7994796 60.85850809 50.45385742 60.65356445 C53.92614051 60.13505951 55.84442161 59.26157929 58.64526367 57.17700195 C60.66907867 54.14127945 60.98300621 53.21927708 61.08276367 49.73950195 C61.12272461 48.97766602 61.16268555 48.21583008 61.20385742 47.4309082 C60.34796908 43.97742866 58.60749701 43.06663545 55.64526367 41.17700195 C52.80567231 40.7669712 50.33834114 40.57233972 47.50073242 40.56762695 C46.34605217 40.54282257 46.34605217 40.54282257 45.16804504 40.51751709 C42.7228692 40.4691491 40.27831471 40.4476923 37.83276367 40.42700195 C36.16932114 40.39883271 34.50590742 40.36890393 32.8425293 40.3371582 C28.77682528 40.26339385 24.71146391 40.21375141 20.64526367 40.17700195 C20.66011974 50.55614085 20.70162811 60.93479584 20.77735424 71.3136797 C20.81167415 76.13284872 20.83674195 80.95169906 20.84082031 85.77099609 C20.84509261 90.42024855 20.8734657 95.06878152 20.91869545 99.71780968 C20.93170484 101.49320984 20.93596599 103.26869596 20.93141747 105.04413795 C20.92653559 107.52777832 20.95249256 110.00929606 20.98583984 112.49267578 C20.97290138 113.59858566 20.97290138 113.59858566 20.95970154 114.72683716 C20.95577552 117.01899144 20.95577552 117.01899144 21.64526367 120.17700195 C23.91995122 122.14246167 23.91995122 122.14246167 26.64526367 123.17700195 C28.08192383 124.07999023 28.08192383 124.07999023 29.54760742 125.0012207 C30.54920898 125.61610352 31.55081055 126.23098633 32.58276367 126.86450195 C33.58178711 127.48711914 34.58081055 128.10973633 35.61010742 128.7512207 C39.18377653 130.42997131 40.7438722 130.84297798 44.64526367 130.17700195 C48.02204816 128.57743309 51.16358957 126.65076455 54.33276367 124.67700195 C56.02067931 123.6400485 57.71194825 122.60852793 59.40698242 121.58325195 C60.14907959 121.12241211 60.89117676 120.66157227 61.65576172 120.18676758 C63.64526367 119.17700195 63.64526367 119.17700195 66.64526367 119.17700195 C66.70133789 120.66200195 66.70133789 120.66200195 66.75854492 122.17700195 C67.21333866 135.35393546 67.21333866 135.35393546 74.27026367 145.98950195 C78.36313207 149.32161414 82.55484806 150.93974816 87.64526367 152.17700195 C84.71040957 155.39637941 81.877719 157.31416943 77.99682617 159.27075195 C76.90885742 159.82633789 75.82088867 160.38192383 74.69995117 160.9543457 C73.5681543 161.52282227 72.43635742 162.09129883 71.27026367 162.67700195 C61.7100394 167.50718119 61.7100394 167.50718119 52.64526367 173.17700195 C49.95776367 173.92700195 49.95776367 173.92700195 46.64526367 174.17700195 C45.43870117 174.27174805 45.43870117 174.27174805 44.20776367 174.3684082 C31.71255805 174.91862322 22.52193773 169.17018731 12.20776367 162.8918457 C9.13040405 161.0298298 6.01915182 159.28688649 2.83276367 157.6184082 C-15.31307995 148.09678984 -15.31307995 148.09678984 -19.41860962 138.75668335 C-20.73651074 133.71712399 -20.64962395 128.88777935 -20.64526367 123.69897461 C-20.65533951 121.97592354 -20.65533951 121.97592354 -20.6656189 120.21806335 C-20.68459652 116.42568623 -20.68852291 112.63348609 -20.69067383 108.84106445 C-20.69710149 106.20079475 -20.70382983 103.56052577 -20.71084595 100.92025757 C-20.7236195 95.38733775 -20.72661257 89.85446577 -20.7253418 84.3215332 C-20.72414065 77.94009561 -20.74524252 71.55899637 -20.77682912 65.17764437 C-20.80620296 59.02241373 -20.81331604 52.86734464 -20.81212234 46.71204758 C-20.81448018 44.10060621 -20.82331387 41.48916225 -20.83878708 38.87776566 C-20.85841718 35.22283208 -20.85261978 31.56876638 -20.84057617 27.91381836 C-20.85181519 26.83926895 -20.8630542 25.76471954 -20.87463379 24.65760803 C-20.81137791 17.09002523 -19.4418311 11.5728062 -14.28442383 5.8996582 C-13.60637695 5.35180664 -12.92833008 4.80395508 -12.22973633 4.23950195 C-11.5465332 3.67360352 -10.86333008 3.10770508 -10.15942383 2.5246582 C-6.69222699 -0.06448229 -4.29954144 0.03580463 0 0 Z " fill="#DBDCDB" transform="translate(24.354736328125,3.822998046875)"/>
<path d="M0 0 C0.33 0 0.66 0 1 0 C1.01417969 0.6290625 1.02835937 1.258125 1.04296875 1.90625 C1.4019266 8.3480881 2.59235207 13.1437365 7 18 C9.27941322 19.69117755 11.40702901 20.77690048 14 22 C14.66 22.33 15.32 22.66 16 23 C17.8179454 23.0909215 19.63925945 23.11753467 21.45947266 23.11352539 C22.60050446 23.11344986 23.74153625 23.11337433 24.91714478 23.11329651 C26.15362762 23.10813522 27.39011047 23.10297394 28.6640625 23.09765625 C30.5575795 23.09553383 30.5575795 23.09553383 32.48934937 23.09336853 C35.84638299 23.08871078 39.203349 23.07972408 42.56036377 23.06866455 C45.98554906 23.0584377 49.41074134 23.05386818 52.8359375 23.04882812 C59.55731043 23.03778238 66.27865131 23.02103194 73 23 C73 23.33 73 23.66 73 24 C62.44 24 51.88 24 41 24 C41.01771254 34.3791992 41.05636402 44.75773646 41.13209057 55.13667774 C41.16641047 59.95584676 41.19147828 64.77469711 41.19555664 69.59399414 C41.19982893 74.2432466 41.22820203 78.89177956 41.27343178 83.54080772 C41.28644117 85.31620788 41.29070232 87.091694 41.28615379 88.867136 C41.28127192 91.35077636 41.30722889 93.83229411 41.34057617 96.31567383 C41.32763771 97.42158371 41.32763771 97.42158371 41.31443787 98.54983521 C41.31051184 100.84198949 41.31051184 100.84198949 42 104 C44.27468754 105.96545972 44.27468754 105.96545972 47 107 C48.43666016 107.90298828 48.43666016 107.90298828 49.90234375 108.82421875 C50.90394531 109.43910156 51.90554687 110.05398437 52.9375 110.6875 C53.93652344 111.31011719 54.93554688 111.93273437 55.96484375 112.57421875 C59.53851286 114.25296936 61.09860853 114.66597603 65 114 C68.37678449 112.40043114 71.5183259 110.4737626 74.6875 108.5 C76.37541564 107.46304654 78.06668458 106.43152597 79.76171875 105.40625 C80.50381592 104.94541016 81.24591309 104.48457031 82.01049805 104.00976562 C84 103 84 103 87 103 C87.05607422 104.485 87.05607422 104.485 87.11328125 106 C87.56807499 119.17693351 87.56807499 119.17693351 94.625 129.8125 C98.7178684 133.14461219 102.90958439 134.7627462 108 136 C105.0651459 139.21937746 102.23245533 141.13716747 98.3515625 143.09375 C97.26359375 143.64933594 96.175625 144.20492187 95.0546875 144.77734375 C93.92289062 145.34582031 92.79109375 145.91429687 91.625 146.5 C82.06477573 151.33017924 82.06477573 151.33017924 73 157 C70.3125 157.75 70.3125 157.75 67 158 C65.7934375 158.09474609 65.7934375 158.09474609 64.5625 158.19140625 C52.06729437 158.74162127 42.87667406 152.99318536 32.5625 146.71484375 C29.48514038 144.85282785 26.37388814 143.10988453 23.1875 141.44140625 C5.06951024 131.93440357 5.06951024 131.93440357 0.93215942 122.58761597 C-0.38940402 117.50129491 -0.26154157 112.62899681 -0.22705078 107.39501953 C-0.22734283 106.23346848 -0.22763489 105.07191742 -0.22793579 103.87516785 C-0.22654492 100.04430616 -0.2109948 96.21364012 -0.1953125 92.3828125 C-0.19158151 89.72337515 -0.18863653 87.06394857 -0.18673706 84.4045105 C-0.18053071 78.12542574 -0.1641314 71.84641095 -0.14403808 65.56735694 C-0.12165271 58.416215 -0.11067903 51.26506965 -0.10064721 44.11390138 C-0.07976438 29.40923186 -0.0446049 14.70461715 0 0 Z " fill="#ACACAB" transform="translate(4,20)"/>
<path d="M0 0 C4.87458106 -0.12405942 9.74823358 -0.21455231 14.62402344 -0.2746582 C16.28076189 -0.299726 17.93739059 -0.3337899 19.59375 -0.37719727 C21.98204684 -0.43819643 24.36887593 -0.46628526 26.7578125 -0.48828125 C27.49242706 -0.51408768 28.22704163 -0.5398941 28.98391724 -0.56648254 C32.92497923 -0.56860795 35.43364394 -0.04391839 38.4675293 2.39013672 C41 5 41 5 41.76171875 7.24609375 C41.62207966 11.36912162 41.29864104 14.19626972 38.6875 17.5 C34.79801172 21.11812863 31.87665662 21.1246284 26.75 21.375 C19.81507869 21.8835609 15.54778607 22.79191874 10.1875 27.4375 C6.14109001 32.17758028 5.42594141 35.875135 5.56640625 42.0390625 C6.30932188 47.11230617 8.28129369 51.44701144 12 55 C18.57704766 58.35653788 25.5038874 58.5453133 32.75 58.5 C34.33953491 58.49141968 34.33953491 58.49141968 35.96118164 58.48266602 C50.19409375 58.1584713 59.96331953 52.99289194 70.0625 43.0625 C71.0215625 42.0415625 71.0215625 42.0415625 72 41 C78.59712567 45.90598432 83.19892953 51.1893661 86 59 C86.72027652 64.78107319 86.61624155 70.43809692 86.4375 76.25 C86.41591771 77.77861007 86.39702117 79.30726051 86.38085938 80.8359375 C86.28482058 87.3048583 86.01842569 93.60910723 85 100 C84.34 100 83.68 100 83 100 C82.77054687 100.74765625 82.54109375 101.4953125 82.3046875 102.265625 C80.73243439 105.56076625 79.13717541 106.72996545 76.125 108.75 C75.26132813 109.34296875 74.39765625 109.9359375 73.5078125 110.546875 C70.44873323 112.31942561 68.44780369 113.21771484 64.921875 112.6875 C57.67800575 110.39447664 52.51073365 106.48263055 48.0625 100.3125 C45.91715744 95.64322501 45.87503451 91.33373016 45.9375 86.25 C45.94201172 85.55261719 45.94652344 84.85523438 45.95117188 84.13671875 C45.9628998 82.42444197 45.98083347 80.71220967 46 79 C43.83063132 80.05726255 41.66405794 81.11944861 39.5 82.1875 C38.85869141 82.50340088 38.21738281 82.81930176 37.55664062 83.14477539 C33.43203958 85.20446937 29.56932803 87.41966741 25.84375 90.15234375 C23.06413504 91.43025995 21.03020255 91.32212289 18 91 C14.96484375 89.57421875 14.96484375 89.57421875 11.9375 87.6875 C10.43509766 86.76517578 10.43509766 86.76517578 8.90234375 85.82421875 C7.46568359 84.92123047 7.46568359 84.92123047 6 84 C5.07316406 83.44957031 4.14632812 82.89914063 3.19140625 82.33203125 C1 81 1 81 0 80 C-0.09502416 77.50507612 -0.12557566 75.03793986 -0.11352539 72.54272461 C-0.11367142 71.76229294 -0.11381744 70.98186127 -0.1139679 70.17778015 C-0.11326858 67.5859402 -0.10547536 64.99417122 -0.09765625 62.40234375 C-0.09579213 60.6101536 -0.0943682 58.81796294 -0.09336853 57.02577209 C-0.08954284 52.29929203 -0.07971212 47.57284248 -0.06866455 42.84637451 C-0.05845153 38.0271445 -0.05387115 33.20790958 -0.04882812 28.38867188 C-0.03808989 18.92576781 -0.02101286 9.46288644 0 0 Z " fill="#797A79" transform="translate(45,44)"/>
<path d="M0 0 C0.05607422 1.485 0.05607422 1.485 0.11328125 3 C0.56807499 16.17693351 0.56807499 16.17693351 7.625 26.8125 C11.7178684 30.14461219 15.90958439 31.7627462 21 33 C18.0651459 36.21937746 15.23245533 38.13716747 11.3515625 40.09375 C9.71960938 40.92712891 9.71960938 40.92712891 8.0546875 41.77734375 C6.35699219 42.63005859 6.35699219 42.63005859 4.625 43.5 C-4.93522427 48.33017924 -4.93522427 48.33017924 -14 54 C-16.6875 54.75 -16.6875 54.75 -20 55 C-20.804375 55.06316406 -21.60875 55.12632812 -22.4375 55.19140625 C-35.85341161 55.78216372 -45.98731311 48.97281869 -57.00976562 42.19140625 C-58.96171587 41.02291788 -60.94853559 39.94983591 -62.953125 38.875 C-66 37 -66 37 -67 34 C-65.06305322 33.18618205 -63.12542289 32.37399084 -61.1875 31.5625 C-59.56908203 30.88380859 -59.56908203 30.88380859 -57.91796875 30.19140625 C-55.9704874 29.39624987 -53.99561057 28.66520352 -52 28 C-50.89831016 26.30230766 -50.89831016 26.30230766 -50 24 C-49.484375 23.030625 -48.96875 22.06125 -48.4375 21.0625 C-46.11294715 15.70898435 -46.25073008 9.74950001 -46 4 C-43 3 -43 3 -41.203125 3.63671875 C-40.55859375 3.98347656 -39.9140625 4.33023438 -39.25 4.6875 C-38.54617187 5.05746094 -37.84234375 5.42742187 -37.1171875 5.80859375 C-35.77318676 6.56490413 -34.44273603 7.34624979 -33.1328125 8.16015625 C-29.08619251 10.66906065 -26.72690968 11.63097989 -22 11 C-18.61702765 9.41441816 -15.48115009 7.47343624 -12.3125 5.5 C-10.62458436 4.46304654 -8.93331542 3.43152597 -7.23828125 2.40625 C-6.1251355 1.71499023 -6.1251355 1.71499023 -4.98950195 1.00976562 C-3 0 -3 0 0 0 Z " fill="#A9A9A8" transform="translate(91,123)"/>
<path d="M0 0 C4.87458106 -0.12405942 9.74823358 -0.21455231 14.62402344 -0.2746582 C16.28076189 -0.299726 17.93739059 -0.3337899 19.59375 -0.37719727 C21.98204684 -0.43819643 24.36887593 -0.46628526 26.7578125 -0.48828125 C27.49242706 -0.51408768 28.22704163 -0.5398941 28.98391724 -0.56648254 C32.92497923 -0.56860795 35.43364394 -0.04391839 38.4675293 2.39013672 C41 5 41 5 41.76171875 7.24609375 C41.62207966 11.36912162 41.29864104 14.19626972 38.6875 17.5 C34.79801172 21.11812863 31.87665662 21.1246284 26.75 21.375 C19.81507869 21.8835609 15.54778607 22.79191874 10.1875 27.4375 C6.13818745 32.18098042 5.43478119 35.87710306 5.55859375 42.04296875 C6.53071297 48.55530722 10.05096735 53.26281873 14.875 57.5625 C19.28497553 59.70816074 24.33535564 59.40657821 29.14477539 59.57519531 C34.64487207 59.81984435 37.749349 60.54016779 42 64 C44.73386049 67.04273415 45.42045918 69.19097955 45.6875 73.25 C45.78611328 74.58804688 45.78611328 74.58804688 45.88671875 75.953125 C45.94279297 76.96632812 45.94279297 76.96632812 46 78 C42.47128873 80.18832031 38.92513466 82.34663963 35.375 84.5 C33.87646484 85.43005859 33.87646484 85.43005859 32.34765625 86.37890625 C31.37441406 86.96542969 30.40117188 87.55195313 29.3984375 88.15625 C28.06304932 88.97319336 28.06304932 88.97319336 26.70068359 89.80664062 C23.54798367 91.19973385 21.41403286 91.31939895 18 91 C14.96484375 89.57421875 14.96484375 89.57421875 11.9375 87.6875 C10.43509766 86.76517578 10.43509766 86.76517578 8.90234375 85.82421875 C7.46568359 84.92123047 7.46568359 84.92123047 6 84 C5.07316406 83.44957031 4.14632812 82.89914063 3.19140625 82.33203125 C1 81 1 81 0 80 C-0.09502416 77.50507612 -0.12557566 75.03793986 -0.11352539 72.54272461 C-0.11367142 71.76229294 -0.11381744 70.98186127 -0.1139679 70.17778015 C-0.11326858 67.5859402 -0.10547536 64.99417122 -0.09765625 62.40234375 C-0.09579213 60.6101536 -0.0943682 58.81796294 -0.09336853 57.02577209 C-0.08954284 52.29929203 -0.07971212 47.57284248 -0.06866455 42.84637451 C-0.05845153 38.0271445 -0.05387115 33.20790958 -0.04882812 28.38867188 C-0.03808989 18.92576781 -0.02101286 9.46288644 0 0 Z " fill="#020202" transform="translate(45,44)"/>
<path d="M0 0 C0.33 0 0.66 0 1 0 C1.01417969 0.6290625 1.02835937 1.258125 1.04296875 1.90625 C1.4019266 8.3480881 2.59235207 13.1437365 7 18 C9.27941322 19.69117755 11.40702901 20.77690048 14 22 C14.66 22.33 15.32 22.66 16 23 C17.8179454 23.0909215 19.63925945 23.11753467 21.45947266 23.11352539 C22.60050446 23.11344986 23.74153625 23.11337433 24.91714478 23.11329651 C26.15362762 23.10813522 27.39011047 23.10297394 28.6640625 23.09765625 C30.5575795 23.09553383 30.5575795 23.09553383 32.48934937 23.09336853 C35.84638299 23.08871078 39.203349 23.07972408 42.56036377 23.06866455 C45.98554906 23.0584377 49.41074134 23.05386818 52.8359375 23.04882812 C59.55731043 23.03778238 66.27865131 23.02103194 73 23 C73 23.33 73 23.66 73 24 C62.44 24 51.88 24 41 24 C41.03029297 26.40772705 41.06058594 28.8154541 41.09179688 31.29614258 C41.19175322 39.24298548 41.29150334 47.18983097 41.39115143 55.13667774 C41.45158613 59.95578446 41.51209072 64.77489029 41.57275391 69.59399414 C41.63127245 74.24292996 41.6896089 78.89186802 41.74781799 83.54080772 C41.77008043 85.31625132 41.79240898 87.09169408 41.81480408 88.867136 C41.84611103 91.3499798 41.87718495 93.83282641 41.90820312 96.31567383 C41.91755386 97.05294708 41.9269046 97.79022034 41.9365387 98.54983521 C42.2272691 121.95076191 42.2272691 121.95076191 35.75 129.6875 C31.27898718 133.44721533 26.48562494 135.96248216 21 138 C20.34 138.33 19.68 138.66 19 139 C11.39836775 135.67862869 4.35779879 130.29640333 0.92825317 122.59249878 C-0.38655133 117.50398016 -0.26154595 112.62966203 -0.22705078 107.39501953 C-0.22734283 106.23346848 -0.22763489 105.07191742 -0.22793579 103.87516785 C-0.22654492 100.04430616 -0.2109948 96.21364012 -0.1953125 92.3828125 C-0.19158151 89.72337515 -0.18863653 87.06394857 -0.18673706 84.4045105 C-0.18053071 78.12542574 -0.1641314 71.84641095 -0.14403808 65.56735694 C-0.12165271 58.416215 -0.11067903 51.26506965 -0.10064721 44.11390138 C-0.07976438 29.40923186 -0.0446049 14.70461715 0 0 Z M4 44 C1.28244426 47.78162797 0.62967898 50.3533614 0.65942383 54.98364258 C0.65965042 56.16448929 0.65987701 57.345336 0.66011047 58.56196594 C0.67559433 59.82671249 0.69107819 61.09145905 0.70703125 62.39453125 C0.71127609 63.69702316 0.71552094 64.99951508 0.71989441 66.34147644 C0.73130988 69.79232267 0.76074783 73.24278583 0.79400635 76.69348145 C0.82477892 80.21942972 0.83841503 83.74544032 0.85351562 87.27148438 C0.88562132 94.18114624 0.93677719 101.09055469 1 108 C1.79003418 107.2069043 2.58006836 106.41380859 3.39404297 105.59667969 C9.23172008 99.77978502 13.56617856 96.55393242 22.0234375 96.56640625 C26.88913223 97.27518855 30.96463153 99.47254814 35.3125 101.6875 C37.80104392 103.14627843 37.80104392 103.14627843 40 103 C40.10152851 95.41955012 40.17151993 87.839276 40.21972656 80.25830078 C40.23982563 77.68010912 40.26710941 75.10196296 40.30175781 72.52392578 C40.35034847 68.81531539 40.37298658 65.10730844 40.390625 61.3984375 C40.41127014 60.24822113 40.43191528 59.09800476 40.45318604 57.91293335 C40.45494724 51.61329041 40.2770942 47.76379803 36 43 C30.42003216 37.71371468 24.88120146 36.57772785 17.39453125 36.74609375 C11.98279011 37.31993253 7.91236754 40.40485145 4 44 Z " fill="#7B7B7B" transform="translate(4,20)"/>
<path d="M0 0 C4.29 -0.0825 8.58 -0.165 13 -0.25 C14.33675781 -0.28641602 15.67351562 -0.32283203 17.05078125 -0.36035156 C25.74818306 -0.44107595 30.91518055 0.65787499 37.75 6.25 C44.39976945 14.37749599 44.96399062 21.88842813 44.22314453 32.06054688 C43.53517539 38.04000737 41.10169795 42.25537499 36.8125 46.375 C24.88468898 54.5875912 15.1159748 52 0 52 C0 34.84 0 17.68 0 0 Z " fill="#FAFAFA" transform="translate(364,50)"/>
<path d="M0 0 C4.49625 -0.0825 8.9925 -0.165 13.625 -0.25 C15.03217285 -0.28641602 16.4393457 -0.32283203 17.88916016 -0.36035156 C29.4276706 -0.46309286 29.4276706 -0.46309286 34 4 C37.47361388 7.66495702 37.55980653 10.62893253 37.4296875 15.515625 C36.73127216 19.55373551 35.00649513 21.27983774 32 24 C31.34 24 30.68 24 30 24 C30 24.66 30 25.32 30 26 C30.7425 26.185625 31.485 26.37125 32.25 26.5625 C35.96907199 28.50656036 37.50942092 31.20579871 39 35 C39.74291863 39.45751177 38.65807714 42.31404062 36.55859375 46.2890625 C33.05140843 50.13905541 29.93973728 51.80749453 24.80688477 52.31689453 C21.04869053 52.3935354 17.32056865 52.3478878 13.5625 52.25 C9.086875 52.1675 4.61125 52.085 0 52 C0 34.84 0 17.68 0 0 Z " fill="#FAFAFA" transform="translate(266,50)"/>
<path d="M0 0 C0 2 0 4 0 6 C4.03693858 8.10261193 8.07546998 10.20212092 12.11547852 12.29882812 C13.48831175 13.0118538 14.86071356 13.72571075 16.23266602 14.44042969 C18.2099581 15.47031414 20.18880583 16.49715385 22.16796875 17.5234375 C22.77650192 17.84122162 23.3850351 18.15900574 24.01200867 18.48641968 C27.28282373 20.17847017 30.55439728 21.69902222 34 23 C29.82662441 31.60758716 21.52566696 36.43204847 13 40 C12.15308594 40.36867187 11.30617187 40.73734375 10.43359375 41.1171875 C5.35507258 42.42292787 0.40978535 42.32847029 -4.8125 42.3125 C-5.85470703 42.32861328 -6.89691406 42.34472656 -7.97070312 42.36132812 C-14.35359669 42.36533496 -20.25515455 42.01165625 -26 39 C-28.15625 36.80859375 -28.15625 36.80859375 -29.5 34.4375 C-29.9640625 33.65246094 -30.428125 32.86742187 -30.90625 32.05859375 C-33.57045164 27.04418566 -33.67064963 22.64717474 -33 17 C-30.83282913 11.34854147 -27.34816891 7.8447707 -22 5 C-17.53084532 3.55928566 -12.84578407 3.68150614 -8.19140625 3.4765625 C-4.7800561 2.96715648 -2.80342226 1.95977556 0 0 Z " fill="#ACACAB" transform="translate(83,61)"/>
<path d="M0 0 C10 0 10 0 13.24658203 3.12109375 C14.20251959 4.53654056 15.12146778 5.97746598 16.0078125 7.4375 C16.50417206 8.19216553 17.00053162 8.94683105 17.51193237 9.72436523 C19.08325605 12.1296688 20.60377767 14.56277282 22.125 17 C23.18429547 18.640095 24.24676427 20.27814506 25.3125 21.9140625 C27.91913005 25.91739152 30.45468566 29.95469241 33 34 C33.33 22.78 33.66 11.56 34 0 C37.3 0 40.6 0 44 0 C44 17.49 44 34.98 44 53 C34 53 34 53 30.75341797 49.87890625 C29.79748041 48.46345944 28.87853222 47.02253402 27.9921875 45.5625 C27.49582794 44.80783447 26.99946838 44.05316895 26.48806763 43.27563477 C24.91674395 40.8703312 23.39622233 38.43722718 21.875 36 C20.81570453 34.359905 19.75323573 32.72185494 18.6875 31.0859375 C16.08086995 27.08260848 13.54531434 23.04530759 11 19 C10.67 30.22 10.34 41.44 10 53 C6.7 53 3.4 53 0 53 C0 35.51 0 18.02 0 0 Z " fill="#F4F4F4" transform="translate(558,49)"/>
<path d="M0 0 C0.67328842 -0.00014603 1.34657684 -0.00029205 2.04026794 -0.0004425 C4.26955366 0.00025512 6.4987562 0.0080405 8.72802734 0.01586914 C10.27216547 0.01773385 11.81630419 0.01915751 13.36044312 0.02015686 C17.42766957 0.02397785 21.49486039 0.03380457 25.56207275 0.04486084 C29.71113605 0.05508395 33.86020509 0.05965641 38.00927734 0.06469727 C46.15252287 0.0754272 54.29573943 0.09249862 62.43896484 0.11352539 C62.43896484 0.44352539 62.43896484 0.77352539 62.43896484 1.11352539 C45.27896484 1.44352539 28.11896484 1.77352539 10.43896484 2.11352539 C12.91396484 4.09352539 12.91396484 4.09352539 15.43896484 6.11352539 C20.8570469 12.74405718 21.10428461 19.34441753 20.81396484 27.61352539 C20.79978516 28.70922852 20.78560547 29.80493164 20.77099609 30.93383789 C20.62217834 38.9303119 20.62217834 38.9303119 19.43896484 40.11352539 C15.59321658 40.42439254 11.73321347 40.39213481 7.87646484 40.42602539 C6.26674805 40.46953125 6.26674805 40.46953125 4.62451172 40.51391602 C-2.66630783 40.57195683 -8.63137029 39.8636207 -14.07836914 34.66552734 C-19.34727064 28.64243674 -20.01879505 24.09559022 -19.86962891 16.24243164 C-19.21871236 9.64263225 -14.95868233 6.31549826 -10.14697266 2.31274414 C-6.75602085 -0.25134996 -4.20392311 -0.0076435 0 0 Z " fill="#ACADAC" transform="translate(24.56103515625,3.886474609375)"/>
<path d="M0 0 C4.59722221 2.87453805 8.73713689 6.80678648 10.03515625 12.16015625 C10.14730469 12.91167969 10.25945312 13.66320312 10.375 14.4375 C6.66565705 14.72529385 3.07489621 14.88662035 -0.625 14.4375 C-3.125 12 -3.125 12 -4.625 9.4375 C-10.43490142 7.50086619 -16.49873478 7.52624348 -22.125 9.9375 C-26.62264074 14.43514074 -27.76858615 19.17004147 -28 25.4375 C-27.7693912 31.68315491 -26.60766633 36.40399607 -22.1875 40.9375 C-16.97215739 43.13343373 -12.20150688 43.18938857 -6.625 42.4375 C-2.56757827 40.4501914 -1.39596419 38.24692638 0.1875 34.1875 C0.7753125 32.33125 0.7753125 32.33125 1.375 30.4375 C-2.915 30.4375 -7.205 30.4375 -11.625 30.4375 C-11.625 27.7975 -11.625 25.1575 -11.625 22.4375 C-4.035 22.4375 3.555 22.4375 11.375 22.4375 C11.375 32.0075 11.375 41.5775 11.375 51.4375 C8.405 51.4375 5.435 51.4375 2.375 51.4375 C2.045 49.7875 1.715 48.1375 1.375 46.4375 C0.26125 47.365625 0.26125 47.365625 -0.875 48.3125 C-6.77259407 52.86973179 -11.32234114 52.89586946 -18.625 52.4375 C-25.59175978 51.47656762 -30.10870707 47.61641505 -34.625 42.4375 C-39.3460431 35.14134248 -39.59406307 26.88219249 -38.625 18.4375 C-36.64293181 10.88782454 -31.88162305 4.17763038 -25.25 0 C-18.18956903 -3.14857057 -7.06043097 -3.14857057 0 0 Z " fill="#F5F5F5" transform="translate(453.625,50.5625)"/>
<path d="M0 0 C5.60480926 2.87986948 11.06204497 6.01192363 15 11 C15 12.32 15 13.64 15 15 C15.66 15 16.32 15 17 15 C17.68498801 23.1437463 16.67749618 28.28705159 12 35 C11.360625 35.99 10.72125 36.98 10.0625 38 C5.70357666 42.22683476 -0.7806586 41.11695894 -6.51171875 41.1328125 C-9 41 -9 41 -12 40 C-12 39.34 -12 38.68 -12 38 C-12.5775 37.773125 -13.155 37.54625 -13.75 37.3125 C-18.19284147 34.72084247 -20.44390846 30.7848101 -22 26 C-22.46358074 19.64813054 -22.21242875 13.63246012 -18.0625 8.5625 C-6.49801646 -2.66747368 -6.49801646 -2.66747368 0 0 Z " fill="#DADBD9" transform="translate(69,137)"/>
<path d="M0 0 C3.3 0 6.6 0 10 0 C10.01458252 1.09465576 10.02916504 2.18931152 10.04418945 3.31713867 C10.10228739 7.38956905 10.17951927 11.46145315 10.26245117 15.53344727 C10.29564654 17.29377355 10.32369524 19.05420488 10.34643555 20.81469727 C10.3800812 23.34957525 10.4324006 25.88349523 10.48828125 28.41796875 C10.49467117 29.20149216 10.5010611 29.98501556 10.50764465 30.7922821 C10.6296343 35.35524125 11.19629539 38.3549665 14 42 C17.05892236 44.37916184 20.3501889 44.35551184 24.09765625 44.2578125 C26.77894717 43.89443426 28.17587031 42.97006006 30 41 C31.28774446 37.13676662 31.23382793 33.42509463 31.31640625 29.39453125 C31.33718735 28.55532639 31.35796844 27.71612152 31.37937927 26.85148621 C31.44474018 24.17190706 31.50369714 21.49223031 31.5625 18.8125 C31.60569802 16.99543263 31.64931273 15.17837512 31.69335938 13.36132812 C31.8004078 8.90765201 31.90171319 4.45387774 32 0 C35.3 0 38.6 0 42 0 C42.0746894 5.10454178 42.12885461 10.20875875 42.16479492 15.3137207 C42.17979269 17.04685006 42.20019772 18.77994204 42.22631836 20.51293945 C42.26310203 23.01783525 42.27981651 25.5222252 42.29296875 28.02734375 C42.30845261 28.79022202 42.32393646 29.55310028 42.33988953 30.33909607 C42.34181675 36.63371443 41.29761501 43.04359017 37.3515625 48.12109375 C36.78179687 48.55550781 36.21203125 48.98992187 35.625 49.4375 C35.06039062 49.88996094 34.49578125 50.34242187 33.9140625 50.80859375 C27.86007257 54.5768936 21.96128294 54.73134101 15 54 C9.66567575 52.40573508 5.93951852 49.79032647 3 45 C0.42004624 39.12019767 -0.42160555 34.50571972 -0.29296875 28.125 C-0.28872391 27.31506592 -0.28447906 26.50513184 -0.28010559 25.6706543 C-0.26346944 23.11341439 -0.22584772 20.55699696 -0.1875 18 C-0.1724336 16.25391773 -0.15874864 14.50782295 -0.14648438 12.76171875 C-0.11361566 8.50750125 -0.0619406 4.2538895 0 0 Z " fill="#F2F2F2" transform="translate(312,49)"/>
<path d="M0 0 C0.33 0 0.66 0 1 0 C1.01417969 0.6290625 1.02835937 1.258125 1.04296875 1.90625 C1.4019266 8.3480881 2.59235207 13.1437365 7 18 C9.27941322 19.69117755 11.40702901 20.77690048 14 22 C14.66 22.33 15.32 22.66 16 23 C17.8179454 23.0909215 19.63925945 23.11753467 21.45947266 23.11352539 C22.60050446 23.11344986 23.74153625 23.11337433 24.91714478 23.11329651 C26.15362762 23.10813522 27.39011047 23.10297394 28.6640625 23.09765625 C30.5575795 23.09553383 30.5575795 23.09553383 32.48934937 23.09336853 C35.84638299 23.08871078 39.203349 23.07972408 42.56036377 23.06866455 C45.98554906 23.0584377 49.41074134 23.05386818 52.8359375 23.04882812 C59.55731043 23.03778238 66.27865131 23.02103194 73 23 C73 23.33 73 23.66 73 24 C62.44 24 51.88 24 41 24 C41 50.4 41 76.8 41 104 C40.67 104 40.34 104 40 104 C39.99413376 103.32205887 39.98826752 102.64411774 39.98222351 101.94563293 C39.91828421 94.88885465 39.83386255 87.83253219 39.73754883 80.77612305 C39.70429675 78.14272064 39.67626576 75.50924691 39.65356445 72.87573242 C39.62002471 69.09002289 39.5677068 65.30496711 39.51171875 61.51953125 C39.50532883 60.34227982 39.4989389 59.16502838 39.49235535 57.95210266 C39.46266411 56.30095711 39.46266411 56.30095711 39.43237305 54.61645508 C39.41571846 53.16750603 39.41571846 53.16750603 39.39872742 51.68928528 C38.75945143 47.377579 36.80729482 44.76365726 33.6875 41.8125 C27.80317654 37.84400279 21.93602026 37.2758478 15 38 C9.12774007 40.10514978 5.4232113 43.86518305 2 49 C1.66957312 52.13516928 1.66957312 52.13516928 1.68115234 55.76635742 C1.67110672 56.44954544 1.6610611 57.13273346 1.65071106 57.83662415 C1.61984114 60.09289719 1.60283368 62.34905137 1.5859375 64.60546875 C1.56722888 66.17060878 1.54765569 67.73573869 1.5272522 69.30085754 C1.47589252 73.41895588 1.43628744 77.53708694 1.39910889 81.65533447 C1.35909321 85.85819619 1.30798978 90.06092137 1.2578125 94.26367188 C1.16100783 102.50902136 1.07661769 110.75443834 1 119 C0.67 119 0.34 119 0 119 C0 79.73 0 40.46 0 0 Z " fill="#6F6F6F" transform="translate(4,20)"/>
<path d="M0 0 C17.7540107 0 17.7540107 0 22 4 C24.91849308 8.601717 25.4926941 12.6612256 25.4375 18 C25.4674707 19.02867188 25.4674707 19.02867188 25.49804688 20.078125 C25.49315968 25.19990953 24.19894187 28.06373397 21 32 C14.00096304 37.78181314 10.30900014 36 0 36 C0 24.12 0 12.24 0 0 Z " fill="#050505" transform="translate(373,58)"/>
<path d="M0 0 C1.65 0 3.3 0 5 0 C5 51.48 5 102.96 5 156 C3.35 156 1.7 156 0 156 C0 104.52 0 53.04 0 0 Z " fill="#F0F0F0" transform="translate(202,12)"/>
<path d="M0 0 C13.53 0 27.06 0 41 0 C41 2.31 41 4.62 41 7 C35.72 7 30.44 7 25 7 C25 21.85 25 36.7 25 52 C22.03 52 19.06 52 16 52 C16 37.15 16 22.3 16 7 C10.72 7 5.44 7 0 7 C0 4.69 0 2.38 0 0 Z " fill="#FDFDFD" transform="translate(491,50)"/>
<path d="M0 0 C2.97 0 5.94 0 9 0 C9 17.16 9 34.32 9 52 C6.03 52 3.06 52 0 52 C0 34.84 0 17.68 0 0 Z " fill="#FFFFFF" transform="translate(539,50)"/>
<path d="M0 0 C2.97 0 5.94 0 9 0 C9 17.16 9 34.32 9 52 C6.03 52 3.06 52 0 52 C0 34.84 0 17.68 0 0 Z " fill="#FFFFFF" transform="translate(475,50)"/>
<path d="M0 0 C2.206875 -0.061875 4.41375 -0.12375 6.6875 -0.1875 C8.54955078 -0.23970703 8.54955078 -0.23970703 10.44921875 -0.29296875 C14.23720101 0.01957104 16.05804058 0.63446886 19 3 C20.125 6.375 20.125 6.375 20 10 C17.98046875 12.70703125 17.98046875 12.70703125 15 15 C12.11628549 15.37353815 10.01710038 15.48712853 7.1875 15.3125 C4.815625 15.209375 2.44375 15.10625 0 15 C0 10.05 0 5.1 0 0 Z " fill="#060606" transform="translate(275,79)"/>
<path d="M0 0 C1.876875 -0.04125 3.75375 -0.0825 5.6875 -0.125 C6.74324219 -0.14820313 7.79898437 -0.17140625 8.88671875 -0.1953125 C12.05522823 0.00346476 14.18862338 0.55125457 17 2 C18.52491998 5.04983996 18.23562548 7.6423369 18 11 C16.45737187 13.10358381 15.31891683 13.84054159 13 15 C8.66396021 15.1393329 4.33919329 15.04254111 0 15 C0 10.05 0 5.1 0 0 Z " fill="#0F0F0F" transform="translate(275,57)"/>
<path d="M0 0 C1.875 0.34375 1.875 0.34375 3.875 1.90625 C5.26385542 5.29158509 5.32810904 7.71887765 4.875 11.34375 C3.3125 13.78125 3.3125 13.78125 0.875 15.34375 C-5.12485858 16.08057474 -5.12485858 16.08057474 -7.81640625 14.09765625 C-9.47129064 11.87961717 -9.5274558 10.58933023 -9.5 7.84375 C-9.50773437 7.0703125 -9.51546875 6.296875 -9.5234375 5.5 C-8.52404792 0.09153872 -4.76032205 -0.21001421 0 0 Z " fill="#F0F0F0" transform="translate(465.125,126.65625)"/>
<path d="M0 0 C0.99 0 1.98 0 3 0 C3.66 2.31 4.32 4.62 5 7 C5.66 4.69 6.32 2.38 7 0 C8.32 0 9.64 0 11 0 C11.66 2.97 12.32 5.94 13 9 C13.66 6.03 14.32 3.06 15 0 C15.99 0 16.98 0 18 0 C17.22095672 10.55808656 17.22095672 10.55808656 15 15 C13.68 15 12.36 15 11 15 C10.67 12.69 10.34 10.38 10 8 C9.34 8 8.68 8 8 8 C7.67 10.31 7.34 12.62 7 15 C5.35 14.67 3.7 14.34 2 14 C-0.29612756 4.58997722 -0.29612756 4.58997722 0 0 Z " fill="#DEDEDE" transform="translate(472,127)"/>
<path d="M0 0 C1.32 0 2.64 0 4 0 C5.32 2.31 6.64 4.62 8 7 C8.33 4.69 8.66 2.38 9 0 C10.32 0 11.64 0 13 0 C13 4.95 13 9.9 13 15 C8 14 8 14 6.63671875 12.37109375 C5.31835938 9.68554688 5.31835938 9.68554688 4 7 C3.67 9.64 3.34 12.28 3 15 C2.01 15 1.02 15 0 15 C0 10.05 0 5.1 0 0 Z " fill="#DCDCDC" transform="translate(399,127)"/>
<path d="M0 0 C7.71484375 -0.09765625 7.71484375 -0.09765625 10 0 C11 1 11 1 11.125 3.4375 C11 6 11 6 10 8 C10.60760482 10.3494053 11.27129528 12.68529088 12 15 C11.01 15 10.02 15 9 15 C8.731875 14.195625 8.46375 13.39125 8.1875 12.5625 C7.795625 11.716875 7.40375 10.87125 7 10 C6.01 9.67 5.02 9.34 4 9 C4 10.98 4 12.96 4 15 C2.68 15 1.36 15 0 15 C0 10.05 0 5.1 0 0 Z " fill="#DEDEDE" transform="translate(384,127)"/>
<path d="M0 0 C8.75 -0.125 8.75 -0.125 11 1 C11 4 11 7 11 10 C11.30404678 11.67225729 11.63128912 13.34080104 12 15 C10.68 15 9.36 15 8 15 C7.67 13.02 7.34 11.04 7 9 C5.68 9 4.36 9 3 9 C3 10.98 3 12.96 3 15 C2.01 15 1.02 15 0 15 C0 10.05 0 5.1 0 0 Z " fill="#E9E9E9" transform="translate(442,127)"/>
<path d="M0 0 C6.8359375 -0.1953125 6.8359375 -0.1953125 9 0 C9.66 0.66 10.32 1.32 11 2 C10.625 4.5 10.625 4.5 10 7 C10 9.7283768 10.53331141 12.31654063 11 15 C10.01 15 9.02 15 8 15 C7.731875 14.195625 7.46375 13.39125 7.1875 12.5625 C6.795625 11.716875 6.40375 10.87125 6 10 C5.01 9.67 4.02 9.34 3 9 C3 10.98 3 12.96 3 15 C2.01 15 1.02 15 0 15 C0 10.05 0 5.1 0 0 Z " fill="#F1F1F1" transform="translate(275,127)"/>
<path d="M0 0 C1.65 0 3.3 0 5 0 C5.67220351 1.93558599 6.33758077 3.87354372 7 5.8125 C7.556875 7.43091797 7.556875 7.43091797 8.125 9.08203125 C9 12 9 12 9 15 C7.68 14.67 6.36 14.34 5 14 C5 13.34 5 12.68 5 12 C3.02 12 1.04 12 -1 12 C-1 12.99 -1 13.98 -1 15 C-2.32 15 -3.64 15 -5 15 C-4.54705135 13.24859857 -4.08741252 11.49892656 -3.625 9.75 C-3.36976563 8.77546875 -3.11453125 7.8009375 -2.8515625 6.796875 C-2.10401491 4.34162697 -1.22876183 2.24382595 0 0 Z " fill="#CCCCCC" transform="translate(373,127)"/>
<path d="M0 0 C0 1.32 0 2.64 0 4 C-0.969375 3.814375 -1.93875 3.62875 -2.9375 3.4375 C-3.948125 3.293125 -4.95875 3.14875 -6 3 C-7.41577477 4.18424326 -7.41577477 4.18424326 -7.0625 7.5625 C-7.041875 8.696875 -7.02125 9.83125 -7 11 C-5.35 11 -3.7 11 -2 11 C-1.67 10.34 -1.34 9.68 -1 9 C-2.32 9 -3.64 9 -5 9 C-5 8.01 -5 7.02 -5 6 C-2.69 6 -0.38 6 2 6 C2 8.97 2 11.94 2 15 C0.68 14.67 -0.64 14.34 -2 14 C-2.33 14.33 -2.66 14.66 -3 15 C-5.875 15.375 -5.875 15.375 -9 15 C-10.9375 12.9375 -10.9375 12.9375 -12 10 C-11.88214109 6.58209158 -11.58916681 4.07436301 -9.9375 1.0625 C-6.72427107 -0.69959328 -3.6157826 -0.17782537 0 0 Z " fill="#D9D9D9" transform="translate(437,127)"/>
<path d="M0 0 C1.65 0 3.3 0 5 0 C5.83739781 2.1234016 6.66980283 4.2487728 7.5 6.375 C7.9640625 7.55835938 8.428125 8.74171875 8.90625 9.9609375 C10 13 10 13 10 15 C8.68 15 7.36 15 6 15 C6 14.01 6 13.02 6 12 C3.69 12 1.38 12 -1 12 C-1 12.99 -1 13.98 -1 15 C-1.99 15 -2.98 15 -4 15 C-3.43179252 9.54520815 -2.05362055 5.08940744 0 0 Z " fill="#CECECE" transform="translate(292,127)"/>
<path d="M0 0 C0.99 0 1.98 0 3 0 C3.33 1.32 3.66 2.64 4 4 C4.99 2.68 5.98 1.36 7 0 C8.32 0.33 9.64 0.66 11 1 C9.68 2.65 8.36 4.3 7 6 C8.49836105 9.11198065 10.19933758 12.0534615 12 15 C8.75791433 14.64950425 7.38472296 14.43778819 5.1875 11.9375 C4.795625 11.298125 4.40375 10.65875 4 10 C3.67 11.65 3.34 13.3 3 15 C2.01 15 1.02 15 0 15 C0 10.05 0 5.1 0 0 Z " fill="#EAEAEA" transform="translate(319,127)"/>
<path d="M0 0 C0.66 0.99 1.32 1.98 2 3 C0.68 3 -0.64 3 -2 3 C-3.67225729 3.30404678 -5.34080104 3.63128912 -7 4 C-7 6.64 -7 9.28 -7 12 C-5.02 12 -3.04 12 -1 12 C-1 11.34 -1 10.68 -1 10 C-0.01 10 0.98 10 2 10 C1.125 13.875 1.125 13.875 0 15 C-2.92536748 15.28310008 -5.15740993 15.49659706 -8 15 C-10.73580581 12.17870026 -10.97187217 10.27190232 -11.375 6.375 C-11 3 -11 3 -10 1.0625 C-6.60529375 -0.74093769 -3.80755575 -0.36262436 0 0 Z " fill="#E2E2E2" transform="translate(314,127)"/>
<path d="M0 0 C2.97 0 5.94 0 9 0 C9 0.66 9 1.32 9 2 C6.69 2 4.38 2 2 2 C2 3.32 2 4.64 2 6 C4.31 6 6.62 6 9 6 C9 6.66 9 7.32 9 8 C6.69 8 4.38 8 2 8 C2 9.32 2 10.64 2 12 C4.64 12 7.28 12 10 12 C10 12.99 10 13.98 10 15 C6.7 15 3.4 15 0 15 C0 10.05 0 5.1 0 0 Z " fill="#F1F1F1" transform="translate(357,127)"/>
<path d="M0 0 C4.55555556 0.55555556 4.55555556 0.55555556 6 2 C6.23529412 7.52941176 6.23529412 7.52941176 5 10 C3.00045254 10.04254356 0.99958364 10.04080783 -1 10 C-2 9 -2 9 -2.1875 5.5625 C-2 2 -2 2 0 0 Z " fill="#151515" transform="translate(461,129)"/>
<path d="M0 0 C3.96 0 7.92 0 12 0 C12 0.66 12 1.32 12 2 C10.35 2 8.7 2 7 2 C7 6.29 7 10.58 7 15 C6.01 15 5.02 15 4 15 C4 11.04 4 7.08 4 3 C2.68 3 1.36 3 0 3 C0 2.01 0 1.02 0 0 Z " fill="#E6E6E6" transform="translate(261,127)"/>
<path d="M0 0 C0.99 0 1.98 0 3 0 C2.22095672 10.55808656 2.22095672 10.55808656 0 15 C-1.32 15 -2.64 15 -4 15 C-4.33 12.03 -4.66 9.06 -5 6 C-4.34 6 -3.68 6 -3 6 C-2.67 6.99 -2.34 7.98 -2 9 C-1.34 6.03 -0.68 3.06 0 0 Z " fill="#F0F0F0" transform="translate(487,127)"/>
<path d="M0 0 C0.99 0 1.98 0 3 0 C3 4.29 3 8.58 3 13 C5.31 13 7.62 13 10 13 C10 13.66 10 14.32 10 15 C6.7 15 3.4 15 0 15 C0 10.05 0 5.1 0 0 Z " fill="#F2F2F2" transform="translate(344,127)"/>
<path d="M0 0 C3 1 3 1 4 3 C4.35519903 6.83614957 4.54724594 9.14629634 2.4375 12.4375 C-0.81870797 14.5248128 -3.20995016 14.2915423 -7 14 C-6.34 13.67 -5.68 13.34 -5 13 C-5 12.34 -5 11.68 -5 11 C-3.35 11 -1.7 11 0 11 C0 7.37 0 3.74 0 0 Z " fill="#E3E3E3" transform="translate(466,128)"/>
<path d="M0 0 C2.31 0 4.62 0 7 0 C7 2.97 7 5.94 7 9 C6.01 9 5.02 9 4 9 C2.875 5.25 2.875 5.25 4 3 C2.68 3 1.36 3 0 3 C0 2.01 0 1.02 0 0 Z " fill="#D4D4D4" transform="translate(432,133)"/>
<path d="M0 0 C0.33 0.66 0.66 1.32 1 2 C1.66 2.33 2.32 2.66 3 3 C2.67 3.66 2.34 4.32 2 5 C2.60760482 7.3494053 3.27129528 9.68529088 4 12 C3.01 12 2.02 12 1 12 C0.731875 11.21625 0.46375 10.4325 0.1875 9.625 C-0.84814432 6.71885077 -0.84814432 6.71885077 -4 5 C-4 4.34 -4 3.68 -4 3 C-2.68 3 -1.36 3 0 3 C0 2.01 0 1.02 0 0 Z " fill="#E5E5E5" transform="translate(392,130)"/>
<path d="M0 0 C0 1.32 0 2.64 0 4 C-0.9075 3.79375 -1.815 3.5875 -2.75 3.375 C-6.11027897 2.9872755 -7.24075815 3.19588033 -10 5 C-10.33 4.34 -10.66 3.68 -11 3 C-8.21756596 -1.17365106 -4.53441502 -0.22300402 0 0 Z " fill="#ECECEC" transform="translate(437,127)"/>
<path d="M0 0 C0.99 0 1.98 0 3 0 C2.67 3.3 2.34 6.6 2 10 C1.01 9.34 0.02 8.68 -1 8 C-0.67 5.36 -0.34 2.72 0 0 Z " fill="#DDDDDD" transform="translate(487,127)"/>
<path d="M0 0 C2.875 -0.1875 2.875 -0.1875 6 0 C6.66 0.99 7.32 1.98 8 3 C6.68 3 5.36 3 4 3 C1.99598989 3.30830925 -0.00511766 3.63729412 -2 4 C-1.34 2.68 -0.68 1.36 0 0 Z " fill="#F3F3F3" transform="translate(308,127)"/>
<path d="M0 0 C1.65 0 3.3 0 5 0 C5 1.32 5 2.64 5 4 C3.35 4 1.7 4 0 4 C0 2.68 0 1.36 0 0 Z " fill="#2E2E2E" transform="translate(387,129)"/>
<path d="M0 0 C2.475 0.495 2.475 0.495 5 1 C5 1.99 5 2.98 5 4 C3.35 4 1.7 4 0 4 C0 2.68 0 1.36 0 0 Z " fill="#1F1F1F" transform="translate(445,129)"/>
<path d="M0 0 C2.475 0.495 2.475 0.495 5 1 C5 1.99 5 2.98 5 4 C3.35 4 1.7 4 0 4 C0 2.68 0 1.36 0 0 Z " fill="#1A1A1A" transform="translate(278,129)"/>
<path d="M0 0 C0.66 0.33 1.32 0.66 2 1 C-0.64 3.64 -3.28 6.28 -6 9 C-6 6 -6 6 -3.5625 3.375 C-2.716875 2.59125 -1.87125 1.8075 -1 1 C-0.67 0.67 -0.34 0.34 0 0 Z " fill="#878787" transform="translate(59,67)"/>
</svg>
